<?xml version="1.0" encoding="utf-8"?>
<!-- Generator: Adobe Illustrator 19.2.1, SVG Export Plug-In . SVG Version: 6.00 Build 0)  -->
<svg version="1.1" id="Layer_1" xmlns="http://www.w3.org/2000/svg" xmlns:xlink="http://www.w3.org/1999/xlink" x="0px" y="0px"
	 viewBox="0 0 36 29" style="enable-background:new 0 0 36 29;" xml:space="preserve">
<style type="text/css">
	.st0{fill:#BAE3E2;}
	.st1{fill:#FC3C9E;}
	.st2{fill:url(#SVGID_1_);}
	.st3{fill:url(#SVGID_2_);}
	.st4{fill:url(#SVGID_3_);}
	.st5{fill:url(#SVGID_4_);}
	.st6{fill:none;stroke:url(#SVGID_5_);stroke-width:1.5;stroke-linecap:round;stroke-miterlimit:10;}
	.st7{fill:none;stroke:url(#SVGID_6_);stroke-width:1.5;stroke-linecap:round;stroke-miterlimit:10;}
	.st8{fill:none;stroke:url(#SVGID_7_);stroke-width:1.5;stroke-linecap:round;stroke-miterlimit:10;}
	.st9{fill:none;stroke:url(#SVGID_8_);stroke-width:1.5;stroke-linecap:round;stroke-miterlimit:10;}
	.st10{fill:none;stroke:url(#SVGID_9_);stroke-width:1.5;stroke-linecap:round;stroke-miterlimit:10;}
</style>
<g>
	<linearGradient id="SVGID_1_" gradientUnits="userSpaceOnUse" x1="10" y1="12" x2="26" y2="12">
		<stop  offset="0" style="stop-color:#59F0E8"/>
		<stop  offset="1" style="stop-color:#46AFDB"/>
	</linearGradient>
	<path class="st2" d="M26,16c0-4.4-8-16-8-16s-8,11.6-8,16s3.6,8,8,8S26,20.4,26,16z"/>
	<path class="st0" d="M8,8c0-2.2-4-8-4-8S0,5.8,0,8s1.8,4,4,4S8,10.2,8,8z"/>
	<path class="st0" d="M36,8c0-2.2-4-8-4-8s-4,5.8-4,8s1.8,4,4,4S36,10.2,36,8z"/>
</g>
</svg>
