<?xml version="1.0" encoding="utf-8"?>
<!-- Generator: Adobe Illustrator 19.2.0, SVG Export Plug-In . SVG Version: 6.00 Build 0)  -->
<svg version="1.1" id="Layer_1" xmlns="http://www.w3.org/2000/svg" xmlns:xlink="http://www.w3.org/1999/xlink" x="0px" y="0px"
	 viewBox="0 0 48 48" style="enable-background:new 0 0 48 48;" xml:space="preserve">
<style type="text/css">
	.st0{opacity:0.5;fill:#1EB9D4;}
	.st1{fill:url(#SVGID_1_);}
	.st2{clip-path:url(#SVGID_3_);}
	.st3{fill:url(#SVGID_4_);}
	.st4{fill:#F02269;}
	.st5{fill:url(#SVGID_5_);}
	.st6{fill:url(#SVGID_6_);}
	.st7{fill:#C8E9F7;}
	.st8{fill:#A0CBDE;}
	.st9{fill:url(#SVGID_7_);}
	.st10{fill:url(#SVGID_8_);}
	.st11{fill:#5B99B5;}
	.st12{fill:url(#SVGID_9_);}
	.st13{clip-path:url(#SVGID_11_);}
	.st14{fill:url(#SVGID_12_);}
	.st15{fill:url(#SVGID_13_);}
	.st16{fill:url(#SVGID_14_);}
	.st17{fill:url(#SVGID_15_);}
	.st18{fill:#FFFFFF;}
	.st19{fill:url(#SVGID_16_);}
	.st20{fill:url(#SVGID_17_);}
	.st21{fill:#1EDB5D;}
	.st22{fill:none;}
	.st23{fill:url(#SVGID_18_);}
	.st24{clip-path:url(#SVGID_20_);}
	.st25{fill:#05996D;}
</style>
<linearGradient id="SVGID_1_" gradientUnits="userSpaceOnUse" x1="24.0607" y1="40.4767" x2="24.0607" y2="7.366907e-10">
	<stop  offset="0" style="stop-color:#1EBFDB;stop-opacity:0"/>
	<stop  offset="6.013199e-02" style="stop-color:#1EBFDB;stop-opacity:9.410757e-02"/>
	<stop  offset="0.639" style="stop-color:#1EBFDB"/>
</linearGradient>
<path class="st1" d="M43.7,28.6l-2.8-2.8c-0.8-0.8-2-0.8-2.8,0c0.8-0.8,0.8-2,0-2.8l-2.8-2.8c-0.8-0.8-2-0.8-2.8,0
	c0.8-0.8,0.8-2,0-2.8l-2.8-2.8l-2.8-2.8l-2.8-2.8c-0.8-0.8-2-0.8-2.8,0c0.8-0.8,0.8-2,0-2.8l-4-4c-0.6-0.6-1.5-0.7-2.2-0.4l-2.5,1.1
	c-0.8,0.3-1.6,0.2-2.2-0.4L9.8,1.7L8.4,0.3c-0.4-0.4-1-0.4-1.4,0L4.1,3.1c-0.4,0.4-0.4,1,0,1.4l1.4,1.4L6,6.4C6.6,7,6.7,7.9,6.4,8.6
	l-1.1,2.5c-0.3,0.8-0.2,1.6,0.4,2.2l4,4c0.8,0.8,2,0.8,2.8,0c-0.8,0.8-0.8,2,0,2.8l2.8,2.8l2.8,2.8l2.8,2.8c0.8,0.8,2,0.8,2.8,0
	c-0.8,0.8-0.8,2,0,2.8l2.8,2.8c0.8,0.8,2,0.8,2.8,0c-0.8,0.8-0.8,2,0,2.8l2.8,2.8c0.8,0.8,2,0.8,2.8,0l8.5-8.5
	C44.5,30.6,44.5,29.4,43.7,28.6z"/>
<ellipse class="st0" cx="24.5" cy="21" rx="19.5" ry="4"/>
<g>
	<defs>
		<rect id="SVGID_10_" y="0" width="48" height="22"/>
	</defs>
	<clipPath id="SVGID_3_">
		<use xlink:href="#SVGID_10_"  style="overflow:visible;"/>
	</clipPath>
	<g class="st2">
		<g>
			<g>
				<g>
					
						<linearGradient id="SVGID_4_" gradientUnits="userSpaceOnUse" x1="272.7747" y1="-549.9273" x2="288.7747" y2="-549.9273" gradientTransform="matrix(0.7071 -0.7071 0.7071 0.7071 215.6481 608.9012)">
						<stop  offset="0" style="stop-color:#89E6F0"/>
						<stop  offset="0.1923" style="stop-color:#8FE7F1"/>
						<stop  offset="0.4437" style="stop-color:#9FEBF4"/>
						<stop  offset="0.7265" style="stop-color:#BAF0F9"/>
						<stop  offset="1" style="stop-color:#DBF7FF"/>
					</linearGradient>
					<path class="st3" d="M26.7,14.4l-8.5,8.5c-0.8,0.8-0.8,2,0,2.8l2.8,2.8c0.8,0.8,2,0.8,2.8,0l8.5-8.5c0.8-0.8,0.8-2,0-2.8
						l-2.8-2.8C28.8,13.7,27.5,13.7,26.7,14.4z"/>
					
						<linearGradient id="SVGID_5_" gradientUnits="userSpaceOnUse" x1="272.7747" y1="-557.9273" x2="288.7747" y2="-557.9273" gradientTransform="matrix(0.7071 -0.7071 0.7071 0.7071 215.6481 608.9012)">
						<stop  offset="0" style="stop-color:#89E6F0"/>
						<stop  offset="0.1923" style="stop-color:#8FE7F1"/>
						<stop  offset="0.4437" style="stop-color:#9FEBF4"/>
						<stop  offset="0.7265" style="stop-color:#BAF0F9"/>
						<stop  offset="1" style="stop-color:#DBF7FF"/>
					</linearGradient>
					<path class="st5" d="M21.1,8.8l-8.5,8.5c-0.8,0.8-0.8,2,0,2.8l2.8,2.8c0.8,0.8,2,0.8,2.8,0l8.5-8.5c0.8-0.8,0.8-2,0-2.8
						l-2.8-2.8C23.1,8,21.9,8,21.1,8.8z"/>
					
						<linearGradient id="SVGID_6_" gradientUnits="userSpaceOnUse" x1="272.7747" y1="-533.9273" x2="288.7747" y2="-533.9273" gradientTransform="matrix(0.7071 -0.7071 0.7071 0.7071 215.6481 608.9012)">
						<stop  offset="0" style="stop-color:#89E6F0"/>
						<stop  offset="0.1923" style="stop-color:#8FE7F1"/>
						<stop  offset="0.4437" style="stop-color:#9FEBF4"/>
						<stop  offset="0.7265" style="stop-color:#BAF0F9"/>
						<stop  offset="1" style="stop-color:#DBF7FF"/>
					</linearGradient>
					<path class="st6" d="M38.1,25.7l-8.5,8.5c-0.8,0.8-0.8,2,0,2.8l2.8,2.8c0.8,0.8,2,0.8,2.8,0l8.5-8.5c0.8-0.8,0.8-2,0-2.8
						l-2.8-2.8C40.1,25,38.8,25,38.1,25.7z"/>
					
						<linearGradient id="SVGID_7_" gradientUnits="userSpaceOnUse" x1="272.7747" y1="-541.9273" x2="288.7747" y2="-541.9273" gradientTransform="matrix(0.7071 -0.7071 0.7071 0.7071 215.6481 608.9012)">
						<stop  offset="0" style="stop-color:#89E6F0"/>
						<stop  offset="0.1923" style="stop-color:#8FE7F1"/>
						<stop  offset="0.4437" style="stop-color:#9FEBF4"/>
						<stop  offset="0.7265" style="stop-color:#BAF0F9"/>
						<stop  offset="1" style="stop-color:#DBF7FF"/>
					</linearGradient>
					<path class="st9" d="M32.4,20.1l-8.5,8.5c-0.8,0.8-0.8,2,0,2.8l2.8,2.8c0.8,0.8,2,0.8,2.8,0l8.5-8.5c0.8-0.8,0.8-2,0-2.8
						l-2.8-2.8C34.4,19.3,33.2,19.3,32.4,20.1z"/>
					<path class="st18" d="M6.9,0.3L4.1,3.1c-0.4,0.4-0.4,1,0,1.4l1.4,1.4l4.2-4.2L8.4,0.3C8-0.1,7.3-0.1,6.9,0.3z"/>
					
						<linearGradient id="SVGID_8_" gradientUnits="userSpaceOnUse" x1="272.7747" y1="-568.4273" x2="288.7747" y2="-568.4273" gradientTransform="matrix(0.7071 -0.7071 0.7071 0.7071 215.6481 608.9012)">
						<stop  offset="0" style="stop-color:#89E6F0"/>
						<stop  offset="0.1923" style="stop-color:#8FE7F1"/>
						<stop  offset="0.4437" style="stop-color:#9FEBF4"/>
						<stop  offset="0.7265" style="stop-color:#BAF0F9"/>
						<stop  offset="1" style="stop-color:#DBF7FF"/>
					</linearGradient>
					<path class="st10" d="M10.2,2.2L9.8,1.7L5.5,5.9L6,6.4C6.6,7,6.7,7.9,6.4,8.6l-1.1,2.5c-0.3,0.8-0.2,1.6,0.4,2.2l4,4
						c0.8,0.8,2,0.8,2.8,0l8.5-8.5c0.8-0.8,0.8-2,0-2.8l-4-4c-0.6-0.6-1.5-0.7-2.2-0.4l-2.5,1.1C11.7,2.9,10.8,2.7,10.2,2.2z"/>
					<path class="st18" d="M17.6,6.7L17.6,6.7c-0.4,0.4-1,0.4-1.4,0l-1.4-1.4c-0.4-0.4-0.4-1,0-1.4l0,0c0.4-0.4,1-0.4,1.4,0l1.4,1.4
						C17.9,5.6,17.9,6.3,17.6,6.7z"/>
				</g>
			</g>
		</g>
		
			<linearGradient id="SVGID_9_" gradientUnits="userSpaceOnUse" x1="264.2773" y1="617.903" x2="264.2773" y2="601.903" gradientTransform="matrix(0.7071 0.7071 -0.7071 0.7071 266.8943 -599.4611)">
			<stop  offset="0" style="stop-color:#B6DFF0"/>
			<stop  offset="0.2191" style="stop-color:#CEEAF5"/>
			<stop  offset="0.5231" style="stop-color:#E9F5FA"/>
			<stop  offset="0.7933" style="stop-color:#F9FCFE"/>
			<stop  offset="1" style="stop-color:#FFFFFF"/>
		</linearGradient>
		<polygon class="st12" points="21.1,28.6 12.6,20.1 23.9,8.8 32.4,17.3 		"/>
		<polygon class="st21" points="22.5,20.1 21.1,21.5 20.4,20.8 21.1,20.1 20.4,19.4 19.7,20.1 19,19.4 20.4,18 19.7,17.3 18.3,18.7 
			17.6,19.4 18.3,20.1 19,20.8 19.7,21.5 20.4,22.2 21.1,22.9 21.8,22.2 23.2,20.8 		"/>
		<rect x="20" y="17.5" transform="matrix(0.7071 0.7071 -0.7071 0.7071 19.2972 -10.6464)" class="st21" width="5" height="1"/>
		<rect x="24.1" y="17.2" transform="matrix(0.7071 0.7071 -0.7071 0.7071 20.4185 -11.9393)" class="st21" width="1" height="3"/>
		<rect x="21.3" y="14.3" transform="matrix(0.7071 0.7071 -0.7071 0.7071 17.5901 -10.7678)" class="st21" width="1" height="3"/>
		<g>
			<rect x="25.5" y="12.9" transform="matrix(0.7071 -0.7071 0.7071 0.7071 -2.5815 22.6378)" class="st22" width="1" height="3"/>
			<path class="st21" d="M28.2,14.4L26,12.3l-0.7-0.7l-0.7,0.7L23.9,13l-0.7,0.7l0.7,0.7l2.1,2.1l0.7,0.7l0.7-0.7l0.7-0.7l0.7-0.7
				L28.2,14.4z M26.7,15.8l-2.1-2.1l0.7-0.7l2.1,2.1L26.7,15.8z"/>
		</g>
	</g>
</g>
</svg>
