<?xml version="1.0" encoding="utf-8"?>
<!-- Generator: Adobe Illustrator 19.2.1, SVG Export Plug-In . SVG Version: 6.00 Build 0)  -->
<svg version="1.1" id="Layer_1" xmlns="http://www.w3.org/2000/svg" xmlns:xlink="http://www.w3.org/1999/xlink" x="0px" y="0px"
	 viewBox="0 0 128 128" style="enable-background:new 0 0 128 128;" xml:space="preserve">
<style type="text/css">
	.st0{fill:#EDAB26;stroke:#FFD580;stroke-width:16;stroke-linejoin:round;stroke-miterlimit:10;}
	.st1{opacity:0.3;fill:none;stroke:#EDAB26;stroke-width:16;stroke-miterlimit:10;}
	.st2{fill:#EDAB26;}
	.st3{fill:none;stroke:#FFD580;stroke-width:16;stroke-linejoin:round;stroke-miterlimit:10;}
</style>
<g>
	<polygon class="st0" points="108,40.1 20,40.1 8,52.1 8,72.1 20,72.1 108,72.1 120,72.1 120,52.1 	"/>
	<polygon class="st1" points="108,28.1 20,28.1 8,40.1 8,48.1 8.1,60.1 119.9,60.1 120,48.1 120,40.1 	"/>
	<polygon class="st2" points="108,24.1 20,24.1 8,36.1 8,44.1 20,56.1 108,56.1 120,44.1 120,36.1 	"/>
	<polygon class="st3" points="108,24.1 20,24.1 8,24.1 8,56.1 20,56.1 108,56.1 120,56.1 120,24.1 	"/>
</g>
</svg>
