<?xml version="1.0" encoding="utf-8"?>
<!-- Generator: Adobe Illustrator 19.2.1, SVG Export Plug-In . SVG Version: 6.00 Build 0)  -->
<svg version="1.1" id="Layer_1" xmlns="http://www.w3.org/2000/svg" xmlns:xlink="http://www.w3.org/1999/xlink" x="0px" y="0px"
	 viewBox="0 0 256 256" style="enable-background:new 0 0 256 256;" xml:space="preserve">
<style type="text/css">
	.st0{fill:url(#SVGID_1_);}
	.st1{fill:url(#SVGID_2_);}
	.st2{fill:url(#SVGID_3_);}
</style>
<linearGradient id="SVGID_1_" gradientUnits="userSpaceOnUse" x1="122.5" y1="151" x2="122.5" y2="191" gradientTransform="matrix(1 0 0 -1 0 256)">
	<stop  offset="0" style="stop-color:#A0CBDE"/>
	<stop  offset="0.3215" style="stop-color:#A3CDE0"/>
	<stop  offset="0.5483" style="stop-color:#ACD4E6"/>
	<stop  offset="0.7453" style="stop-color:#BCE0EF"/>
	<stop  offset="0.856" style="stop-color:#C8E9F7"/>
</linearGradient>
<path class="st0" d="M143.5,65h-7c-19.3,0-35,17.9-35,40l0,0h42l0,0C139,92.2,139,77.8,143.5,65L143.5,65z"/>
<g id="Layer_1_1_">
	
		<linearGradient id="SVGID_2_" gradientUnits="userSpaceOnUse" x1="122.5" y1="135.8855" x2="122.5" y2="165.5042" gradientTransform="matrix(1 0 0 -1 0 256)">
		<stop  offset="0" style="stop-color:#A0CBDE"/>
		<stop  offset="0.3215" style="stop-color:#A3CDE0"/>
		<stop  offset="0.5483" style="stop-color:#ACD4E6"/>
		<stop  offset="0.7453" style="stop-color:#BCE0EF"/>
		<stop  offset="0.856" style="stop-color:#C8E9F7"/>
	</linearGradient>
	<path class="st1" d="M186.5,119.3v38.6l-128,0.3v-38.9c0,0,18.2-16.3,64-16.3C168.5,103,186.5,119.3,186.5,119.3z"/>
</g>
<linearGradient id="SVGID_3_" gradientUnits="userSpaceOnUse" x1="127.4912" y1="140.5588" x2="127.4912" y2="67.8905">
	<stop  offset="0" style="stop-color:#A0CBDE"/>
	<stop  offset="0.3215" style="stop-color:#A3CDE0"/>
	<stop  offset="0.5483" style="stop-color:#ACD4E6"/>
	<stop  offset="0.7453" style="stop-color:#BCE0EF"/>
	<stop  offset="0.856" style="stop-color:#C8E9F7"/>
</linearGradient>
<path class="st2" d="M58.5,119.3l-49,9.7l10,15l2,12l59.6,12.4c27.3,5.7,55.4,5.6,82.7-0.1l44.1-9.3c5.9-1.2,12,0.9,15.9,5.5l0,0
	c5.6,6.6,5.5,16.3-0.3,22.8l-5.1,5.7h-49l33,16l23,25l-1-31l10.8-10.8c9.3-9.3,12.6-23.1,8.4-35.6l0,0c-5.8-17.5-18.9-31.8-35.9-39
	l-16.7-7.2C148,91.9,98.7,95.2,58.5,119.3L58.5,119.3z"/>
</svg>
