<?xml version="1.0" encoding="utf-8"?>
<!-- Generator: Adobe Illustrator 19.2.0, SVG Export Plug-In . SVG Version: 6.00 Build 0)  -->
<svg version="1.1" id="Layer_1" xmlns="http://www.w3.org/2000/svg" xmlns:xlink="http://www.w3.org/1999/xlink" x="0px" y="0px"
	 viewBox="0 0 48 48" style="enable-background:new 0 0 48 48;" xml:space="preserve">
<style type="text/css">
	.st0{opacity:0.5;fill:#1EB9D4;}
	.st1{fill:url(#SVGID_1_);}
	.st2{clip-path:url(#SVGID_3_);}
	.st3{fill:url(#SVGID_4_);}
	.st4{fill:#F02269;}
	.st5{fill:url(#SVGID_5_);}
	.st6{fill:url(#SVGID_6_);}
	.st7{fill:#C8E9F7;}
	.st8{fill:#A0CBDE;}
	.st9{fill:url(#SVGID_7_);}
	.st10{fill:url(#SVGID_8_);}
	.st11{fill:#5B99B5;}
	.st12{fill:url(#SVGID_9_);}
	.st13{clip-path:url(#SVGID_11_);}
	.st14{fill:url(#SVGID_12_);}
	.st15{fill:url(#SVGID_13_);}
	.st16{fill:url(#SVGID_14_);}
	.st17{fill:url(#SVGID_15_);}
	.st18{fill:#FFFFFF;}
	.st19{fill:url(#SVGID_16_);}
	.st20{fill:url(#SVGID_17_);}
	.st21{fill:#1EDB5D;}
	.st22{fill:none;}
	.st23{fill:url(#SVGID_18_);}
	.st24{clip-path:url(#SVGID_20_);}
	.st25{fill:#05996D;}
</style>
<ellipse class="st0" cx="24" cy="9" rx="24" ry="8"/>
<g>
	<linearGradient id="SVGID_1_" gradientUnits="userSpaceOnUse" x1="23.0894" y1="25.1869" x2="23.0894" y2="3.57">
		<stop  offset="0" style="stop-color:#1EBFDB;stop-opacity:0"/>
		<stop  offset="6.013199e-02" style="stop-color:#1EBFDB;stop-opacity:9.410757e-02"/>
		<stop  offset="0.639" style="stop-color:#1EBFDB"/>
	</linearGradient>
	<path class="st1" d="M3.3,4.9l2.3-1.1c1.5-0.7,3.3-0.1,4,1.5l1.1,2.3c0.7,1.5,2.5,2.2,4,1.5L16.8,8c1.5-0.7,3.3-0.1,4,1.5l1.1,2.3
		c0.7,1.5,2.5,2.2,4,1.5l2.3-1.1c1.5-0.7,3.3-0.1,4,1.5l1.1,2.3c0.7,1.5,2.5,2.2,4,1.5l2.3-1.1c1.5-0.7,3.3-0.1,4,1.5l1.1,2.3
		c0.7,1.5,0.1,3.3-1.5,4l-2.3,1.1c-1.5,0.7-3.3,0.1-4-1.5l-1.1-2.3c-0.7-1.5-2.5-2.2-4-1.5l-2.3,1.1c-1.5,0.7-3.3,0.1-4-1.5
		l-1.1-2.3c-0.7-1.5-2.5-2.2-4-1.5l-2.3,1.1c-1.5,0.7-3.3,0.1-4-1.5L13.1,13c-0.7-1.5-2.5-2.2-4-1.5l-2.3,1.1
		c-1.5,0.7-3.3,0.1-4-1.5L1.8,8.9C1.1,7.4,1.8,5.6,3.3,4.9z"/>
</g>
<g>
	<defs>
		<ellipse id="SVGID_19_" cx="24" cy="9" rx="24" ry="8"/>
	</defs>
	<clipPath id="SVGID_3_">
		<use xlink:href="#SVGID_19_"  style="overflow:visible;"/>
	</clipPath>
	<g class="st2">
		<path class="st25" d="M3.3,4.9l2.3-1.1c1.5-0.7,3.3-0.1,4,1.5l1.1,2.3c0.7,1.5,2.5,2.2,4,1.5L16.8,8c1.5-0.7,3.3-0.1,4,1.5
			l1.1,2.3c0.7,1.5,2.5,2.2,4,1.5l2.3-1.1c1.5-0.7,3.3-0.1,4,1.5l1.1,2.3c0.7,1.5,2.5,2.2,4,1.5l2.3-1.1c1.5-0.7,3.3-0.1,4,1.5
			l1.1,2.3c0.7,1.5,0.1,3.3-1.5,4l-2.3,1.1c-1.5,0.7-3.3,0.1-4-1.5l-1.1-2.3c-0.7-1.5-2.5-2.2-4-1.5l-2.3,1.1
			c-1.5,0.7-3.3,0.1-4-1.5l-1.1-2.3c-0.7-1.5-2.5-2.2-4-1.5l-2.3,1.1c-1.5,0.7-3.3,0.1-4-1.5L13.1,13c-0.7-1.5-2.5-2.2-4-1.5
			l-2.3,1.1c-1.5,0.7-3.3,0.1-4-1.5L1.8,8.9C1.1,7.4,1.8,5.6,3.3,4.9z"/>
	</g>
</g>
<path class="st25" d="M3.1,5.7l1.6-1.9c1.1-1.3,3-1.4,4.2-0.3l1.9,1.6C12.1,6.2,14,6,15.1,4.8l1.6-1.9c1.1-1.3,3-1.4,4.2-0.3
	l1.9,1.6C24.1,5.3,26,5.1,27,3.9L28.7,2c1.1-1.3,3-1.4,4.2-0.3l1.9,1.6C36,4.3,37.9,4.2,39,2.9L40.6,1c1.1-1.3,3-1.4,4.2-0.3
	l1.9,1.6c1.3,1.1,1.4,3,0.3,4.2l-1.6,1.9c-1.1,1.3-3,1.4-4.2,0.3l-1.9-1.6c-1.3-1.1-3.2-0.9-4.2,0.3l-1.6,1.9
	c-1.1,1.3-3,1.4-4.2,0.3l-1.9-1.6c-1.3-1.1-3.2-0.9-4.2,0.3l-1.6,1.9c-1.1,1.3-3,1.4-4.2,0.3L15.4,9c-1.3-1.1-3.2-0.9-4.2,0.3
	l-1.6,1.9c-1.1,1.3-3,1.4-4.2,0.3L3.4,9.9C2.2,8.8,2,6.9,3.1,5.7z"/>
</svg>
