<?xml version="1.0" encoding="utf-8"?>
<!-- Generator: Adobe Illustrator 19.2.1, SVG Export Plug-In . SVG Version: 6.00 Build 0)  -->
<svg version="1.1" xmlns="http://www.w3.org/2000/svg" xmlns:xlink="http://www.w3.org/1999/xlink" x="0px" y="0px"
	 viewBox="0 0 48 48" style="enable-background:new 0 0 48 48;" xml:space="preserve">
<style type="text/css">
	.st0{fill:url(#SVGID_1_);}
	.st1{opacity:0.7;fill:#1EB9D4;}
	.st2{fill:url(#SVGID_2_);}
	.st3{clip-path:url(#SVGID_4_);}
	.st4{fill:url(#SVGID_5_);}
	.st5{fill:#F02269;}
	.st6{fill:url(#SVGID_6_);}
	.st7{fill:url(#SVGID_7_);}
	.st8{fill:#C8E9F7;}
	.st9{fill:#A0CBDE;}
	.st10{fill:url(#SVGID_8_);}
	.st11{fill:url(#SVGID_9_);}
	.st12{fill:#5B99B5;}
	.st13{opacity:0.7;fill:#1EB9D4;enable-background:new    ;}
	.st14{fill:url(#SVGID_10_);}
	.st15{clip-path:url(#SVGID_12_);}
	.st16{fill:#05996D;}
	.st17{fill:url(#SVGID_13_);}
	.st18{fill:url(#SVGID_14_);}
	.st19{clip-path:url(#SVGID_16_);}
	.st20{fill:url(#SVGID_17_);}
	.st21{fill:url(#SVGID_18_);}
	.st22{fill:url(#SVGID_19_);}
	.st23{fill:url(#SVGID_20_);}
	.st24{fill:#FFFFFF;}
	.st25{fill:url(#SVGID_21_);}
	.st26{fill:url(#SVGID_22_);}
	.st27{fill:#1EDB5D;}
	.st28{fill:none;}
	.st29{display:none;}
	.st30{display:inline;}
</style>
<g id="Layer_1">
	<ellipse class="st13" cx="24" cy="9.1" rx="24" ry="8"/>
	<g>
		
			<linearGradient id="SVGID_1_" gradientUnits="userSpaceOnUse" x1="23.2581" y1="-183.2431" x2="23.2581" y2="-161.6263" gradientTransform="matrix(1 0 0 -1 0 -158)">
			<stop  offset="0" style="stop-color:#1EBFDB;stop-opacity:0"/>
			<stop  offset="6.013199e-02" style="stop-color:#1EBFDB;stop-opacity:9.410757e-02"/>
			<stop  offset="0.639" style="stop-color:#1EBFDB"/>
		</linearGradient>
		<path class="st0" d="M3.3,5l2.3-1.1c1.5-0.7,3.3-0.1,4,1.5l1.1,2.3c0.7,1.5,2.5,2.2,4,1.5l2.1-1.1c1.5-0.7,3.3-0.1,4,1.5l1.1,2.3
			c0.7,1.5,2.5,2.2,4,1.5l2.3-1.1c1.5-0.7,3.3-0.1,4,1.5l1.1,2.3c0.7,1.5,2.5,2.2,4,1.5l2.3-1.1c1.5-0.7,3.3-0.1,4,1.5l1.1,2.3
			c0.7,1.5,0.1,3.3-1.5,4l-2.3,1.1c-1.5,0.7-3.3,0.1-4-1.5l-1.1-2.3c-0.7-1.5-2.5-2.2-4-1.5l-2.3,1.1c-1.5,0.7-3.3,0.1-4-1.5
			l-1.1-2.3c-0.7-1.5-2.5-2.2-4-1.5L18.1,17c-1.5,0.7-3.3,0.1-4-1.5l-1-2.4c-0.7-1.5-2.5-2.2-4-1.5l-2.3,1.1c-1.5,0.7-3.3,0.1-4-1.5
			L1.8,9C1.1,7.5,1.8,5.7,3.3,5z"/>
	</g>
	<g>
		<g>
			<defs>
				<ellipse id="SVGID_11_" cx="24" cy="9.1" rx="24" ry="8"/>
			</defs>
			<clipPath id="SVGID_2_">
				<use xlink:href="#SVGID_11_"  style="overflow:visible;"/>
			</clipPath>
			<g style="clip-path:url(#SVGID_2_);">
				<path class="st16" d="M3.3,5l2.3-1.1c1.5-0.7,3.3-0.1,4,1.5l1.1,2.3c0.7,1.5,2.5,2.2,4,1.5l2.1-1.1c1.5-0.7,3.3-0.1,4,1.5
					l1.1,2.3c0.7,1.5,2.5,2.2,4,1.5l2.3-1.1c1.5-0.7,3.3-0.1,4,1.5l1.1,2.3c0.7,1.5,2.5,2.2,4,1.5l2.3-1.1c1.5-0.7,3.3-0.1,4,1.5
					l1.1,2.3c0.7,1.5,0.1,3.3-1.5,4l-2.3,1.1c-1.5,0.7-3.3,0.1-4-1.5l-1.1-2.3c-0.7-1.5-2.5-2.2-4-1.5l-2.3,1.1
					c-1.5,0.7-3.3,0.1-4-1.5l-1.1-2.3c-0.7-1.5-2.5-2.2-4-1.5L18.1,17c-1.5,0.7-3.3,0.1-4-1.5l-1-2.4c-0.7-1.5-2.5-2.2-4-1.5
					l-2.3,1.1c-1.5,0.7-3.3,0.1-4-1.5L1.8,9C1.1,7.5,1.8,5.7,3.3,5z"/>
			</g>
		</g>
	</g>
	<path class="st16" d="M3.1,5.8l1.6-1.9c1.1-1.3,3-1.4,4.2-0.3l1.9,1.6c1.3,1.1,3.2,0.9,4.3-0.3L16.7,3c1.1-1.3,3-1.4,4.2-0.3
		l1.9,1.6C24.1,5.4,26,5.2,27,4l1.7-1.9c1.1-1.3,3-1.4,4.2-0.3l1.9,1.6C36,4.4,37.9,4.3,39,3l1.6-1.9c1.1-1.3,3-1.4,4.2-0.3l1.9,1.6
		c1.3,1.1,1.4,3,0.3,4.2l-1.6,1.9c-1.1,1.3-3,1.4-4.2,0.3l-1.9-1.6c-1.3-1.1-3.2-0.9-4.2,0.3l-1.6,1.9c-1.1,1.3-3,1.4-4.2,0.3
		l-1.9-1.6c-1.3-1.1-3.2-0.9-4.2,0.3l-1.6,1.9c-1.1,1.3-3,1.4-4.2,0.3l-2-1.5c-1.3-1.1-3.2-0.9-4.2,0.3l-1.6,1.9
		c-1.1,1.3-3,1.4-4.2,0.3l-2-1.6C2.2,8.9,2,7,3.1,5.8z"/>
</g>
<g id="nyt_x5F_exporter_x5F_info" class="st29">
</g>
</svg>
