<?xml version="1.0" encoding="utf-8"?>
<!-- Generator: Adobe Illustrator 19.2.1, SVG Export Plug-In . SVG Version: 6.00 Build 0)  -->
<svg version="1.1" id="Layer_1" xmlns="http://www.w3.org/2000/svg" xmlns:xlink="http://www.w3.org/1999/xlink" x="0px" y="0px"
	 viewBox="0 0 128 128" style="enable-background:new 0 0 128 128;" xml:space="preserve">
<style type="text/css">
	.st0{fill:url(#SVGID_1_);}
	.st1{fill:url(#SVGID_2_);}
	.st2{fill:#F02269;}
	.st3{fill:url(#SVGID_3_);}
	.st4{fill:url(#SVGID_4_);}
	.st5{fill:#C8E9F7;}
	.st6{fill:#A0CBDE;}
	.st7{fill:url(#SVGID_5_);}
	.st8{fill:url(#SVGID_6_);}
	.st9{fill:#5B99B5;}
</style>
<g>
	
		<linearGradient id="SVGID_1_" gradientUnits="userSpaceOnUse" x1="62.8523" y1="126.7299" x2="62.8523" y2="1.1477" gradientTransform="matrix(0.7071 -0.7071 0.7071 0.7071 -26.6549 63.2317)">
		<stop  offset="0" style="stop-color:#1EBFDB;stop-opacity:0"/>
		<stop  offset="0.639" style="stop-color:#1EBFDB"/>
	</linearGradient>
	<path class="st0" d="M63,8c-22.1,0-40,3.6-40,8v4c0,0.9,0.7,1.7,2,2.5l0,39c-1.3,0.8-2,1.6-2,2.5c0,0.9,0.7,1.7,2,2.5v39
		c-1.3,0.8-2,1.6-2,2.5v4c0,4.4,17.9,8,40,8s40-3.6,40-8v-4c0-0.9-0.7-1.7-2-2.5v-39c1.3-0.8,2-1.6,2-2.5c0-0.9-0.7-1.7-2-2.5v-39
		c1.3-0.8,2-1.6,2-2.5l0-4C103,11.6,85.1,8,63,8z"/>
	<g>
		<g>
			
				<linearGradient id="SVGID_2_" gradientUnits="userSpaceOnUse" x1="253.0678" y1="759.0223" x2="329.0678" y2="759.0223" gradientTransform="matrix(1 0 0 1 -228.0678 -695.0223)">
				<stop  offset="0" style="stop-color:#FF9187"/>
				<stop  offset="0.1025" style="stop-color:#FF8182"/>
				<stop  offset="0.3681" style="stop-color:#FD5B75"/>
				<stop  offset="0.6148" style="stop-color:#FD406C"/>
				<stop  offset="0.8331" style="stop-color:#FC3067"/>
				<stop  offset="1" style="stop-color:#FC2A65"/>
			</linearGradient>
			<rect x="25" y="16" class="st1" width="76" height="96"/>
			<g>
				<path class="st2" d="M63,57.5c-17.7,0-32.8,2.3-38,5.5v5c5.2,3.2,20.3,5.5,38,5.5s32.8-2.3,38-5.5v-5
					C95.8,59.8,80.7,57.5,63,57.5z"/>
				<path class="st2" d="M91.3,16H34.7c-4.4,0.9-7.7,2-9.7,3.2v5c5.2,3.2,20.3,5.5,38,5.5s32.8-2.3,38-5.5v-5
					C99,18,95.7,16.9,91.3,16z"/>
			</g>
			
				<linearGradient id="SVGID_3_" gradientUnits="userSpaceOnUse" x1="251.0678" y1="759.0223" x2="331.0678" y2="759.0223" gradientTransform="matrix(1 0 0 1 -228.0678 -695.0223)">
				<stop  offset="0" style="stop-color:#FF9187"/>
				<stop  offset="0.1025" style="stop-color:#FF8182"/>
				<stop  offset="0.3681" style="stop-color:#FD5B75"/>
				<stop  offset="0.6148" style="stop-color:#FD406C"/>
				<stop  offset="0.8331" style="stop-color:#FC3067"/>
				<stop  offset="1" style="stop-color:#FC2A65"/>
			</linearGradient>
			<ellipse class="st3" cx="63" cy="64" rx="40" ry="8"/>
			
				<linearGradient id="SVGID_4_" gradientUnits="userSpaceOnUse" x1="251.0678" y1="717.0223" x2="331.0678" y2="717.0223" gradientTransform="matrix(1 0 0 1 -228.0678 -695.0223)">
				<stop  offset="0" style="stop-color:#FF9187"/>
				<stop  offset="0.1025" style="stop-color:#FF8182"/>
				<stop  offset="0.3681" style="stop-color:#FD5B75"/>
				<stop  offset="0.6148" style="stop-color:#FD406C"/>
				<stop  offset="0.8331" style="stop-color:#FC3067"/>
				<stop  offset="1" style="stop-color:#FC2A65"/>
			</linearGradient>
			<path class="st4" d="M23,20c0,4.4,17.9,8,40,8s40-3.6,40-8v-4H23V20z"/>
			<ellipse class="st5" cx="63" cy="16" rx="40" ry="8"/>
			<path class="st6" d="M63,24c18.6,0,34.3-2.5,38.7-6c-4.4-3.5-20.1-6-38.7-6s-34.3,2.5-38.7,6C28.7,21.5,44.4,24,63,24z"/>
			
				<linearGradient id="SVGID_5_" gradientUnits="userSpaceOnUse" x1="251.0678" y1="807.0223" x2="331.0678" y2="807.0223" gradientTransform="matrix(1 0 0 1 -228.0678 -695.0223)">
				<stop  offset="0" style="stop-color:#FF9187"/>
				<stop  offset="0.1025" style="stop-color:#FF8182"/>
				<stop  offset="0.3681" style="stop-color:#FD5B75"/>
				<stop  offset="0.6148" style="stop-color:#FD406C"/>
				<stop  offset="0.8331" style="stop-color:#FC3067"/>
				<stop  offset="1" style="stop-color:#FC2A65"/>
			</linearGradient>
			<ellipse class="st7" cx="63" cy="112" rx="40" ry="8"/>
			
				<linearGradient id="SVGID_6_" gradientUnits="userSpaceOnUse" x1="251.0678" y1="801.0223" x2="331.0678" y2="801.0223" gradientTransform="matrix(1 0 0 1 -228.0678 -695.0223)">
				<stop  offset="0" style="stop-color:#FF9187"/>
				<stop  offset="0.1025" style="stop-color:#FF8182"/>
				<stop  offset="0.3681" style="stop-color:#FD5B75"/>
				<stop  offset="0.6148" style="stop-color:#FD406C"/>
				<stop  offset="0.8331" style="stop-color:#FC3067"/>
				<stop  offset="1" style="stop-color:#FC2A65"/>
			</linearGradient>
			<path class="st8" d="M23,108c0-4.4,17.9-8,40-8s40,3.6,40,8v4H23V108z"/>
			<ellipse class="st9" cx="63.5" cy="14" rx="4.5" ry="1"/>
		</g>
	</g>
</g>
</svg>
