<?xml version="1.0" encoding="utf-8"?>
<!-- Generator: Adobe Illustrator 19.2.0, SVG Export Plug-In . SVG Version: 6.00 Build 0)  -->
<svg version="1.1" id="Layer_1" xmlns="http://www.w3.org/2000/svg" xmlns:xlink="http://www.w3.org/1999/xlink" x="0px" y="0px"
	 viewBox="0 0 128 128" style="enable-background:new 0 0 128 128;" xml:space="preserve">
<style type="text/css">
	.st0{opacity:0.5;fill:#1EB9D4;}
	.st1{fill:url(#SVGID_1_);}
	.st2{clip-path:url(#SVGID_3_);}
	.st3{fill:url(#SVGID_4_);}
	.st4{fill:#F02269;}
	.st5{fill:url(#SVGID_5_);}
	.st6{fill:url(#SVGID_6_);}
	.st7{fill:#C8E9F7;}
	.st8{fill:#A0CBDE;}
	.st9{fill:url(#SVGID_7_);}
	.st10{fill:url(#SVGID_8_);}
	.st11{fill:#5B99B5;}
	.st12{fill:url(#SVGID_9_);}
	.st13{clip-path:url(#SVGID_11_);}
	.st14{fill:url(#SVGID_12_);}
	.st15{fill:url(#SVGID_13_);}
	.st16{fill:url(#SVGID_14_);}
	.st17{fill:url(#SVGID_15_);}
	.st18{fill:#FFFFFF;}
	.st19{fill:url(#SVGID_16_);}
	.st20{fill:url(#SVGID_17_);}
	.st21{fill:#1EDB5D;}
	.st22{fill:none;}
	.st23{fill:url(#SVGID_18_);}
	.st24{clip-path:url(#SVGID_20_);}
	.st25{fill:#05996D;}
</style>
<g>
	<ellipse class="st0" cx="63.5" cy="64" rx="63.5" ry="8"/>
	<linearGradient id="SVGID_1_" gradientUnits="userSpaceOnUse" x1="65.2089" y1="125.5822" x2="65.2089" y2="-3.292371e-10">
		<stop  offset="0" style="stop-color:#1EBFDB;stop-opacity:0"/>
		<stop  offset="0.639" style="stop-color:#1EBFDB"/>
	</linearGradient>
	<path class="st1" d="M104.8,23.2C89.2,7.6,74-2.6,70.9,0.6L68,3.4c-0.6,0.6-0.7,1.7-0.4,3.2L40.1,34.2c-1.5-0.4-2.6-0.3-3.2,0.4
		c-0.6,0.6-0.7,1.7-0.4,3.2L9,65.3c-1.5-0.4-2.6-0.3-3.2,0.4L3,68.4c-3.1,3.1,7,18.3,22.6,33.9s30.8,25.8,33.9,22.6l2.8-2.8
		c0.6-0.6,0.7-1.7,0.4-3.2l27.6-27.6c1.5,0.4,2.6,0.3,3.2-0.4c0.6-0.6,0.7-1.7,0.4-3.2l27.6-27.6c1.5,0.4,2.6,0.3,3.2-0.4l2.8-2.8
		C130.6,54,120.4,38.8,104.8,23.2z"/>
	<g>
		<defs>
			<rect id="SVGID_2_" x="0" y="0" width="128" height="64"/>
		</defs>
		<clipPath id="SVGID_3_">
			<use xlink:href="#SVGID_2_"  style="overflow:visible;"/>
		</clipPath>
		<g class="st2">
			
				<linearGradient id="SVGID_4_" gradientUnits="userSpaceOnUse" x1="253.9227" y1="756.5444" x2="329.9227" y2="756.5444" gradientTransform="matrix(0.7071 0.7071 -0.7071 0.7071 393.746 -678.587)">
				<stop  offset="0" style="stop-color:#FF9187"/>
				<stop  offset="0.1025" style="stop-color:#FF8182"/>
				<stop  offset="0.3681" style="stop-color:#FD5B75"/>
				<stop  offset="0.6148" style="stop-color:#FD406C"/>
				<stop  offset="0.8331" style="stop-color:#FC3067"/>
				<stop  offset="1" style="stop-color:#FC2A65"/>
			</linearGradient>
			<polygon class="st3" points="58.1,123.6 4.4,69.9 72.3,2 126,55.7 			"/>
			<path class="st4" d="M39,35.2l-3.5,3.5c1.5,6,10.5,18.2,23,30.8C71,82,83.3,91,89.2,92.5l3.5-3.5c-1.5-6-10.5-18.2-23-30.8
				S45,36.7,39,35.2"/>
			<path class="st4" d="M70,4.2l-3.5,3.5c1.5,6,10.5,18.2,23,30.8C102,51,114.3,60,120.2,61.5l3.5-3.5c-0.6-2.3-2.2-5.4-4.6-9.1
				l-40-40C75.4,6.4,72.3,4.8,70,4.2"/>
			
				<linearGradient id="SVGID_5_" gradientUnits="userSpaceOnUse" x1="251.9227" y1="756.5444" x2="331.9227" y2="756.5444" gradientTransform="matrix(0.7071 0.7071 -0.7071 0.7071 393.746 -678.587)">
				<stop  offset="0" style="stop-color:#FF9187"/>
				<stop  offset="0.1025" style="stop-color:#FF8182"/>
				<stop  offset="0.3681" style="stop-color:#FD5B75"/>
				<stop  offset="0.6148" style="stop-color:#FD406C"/>
				<stop  offset="0.8331" style="stop-color:#FC3067"/>
				<stop  offset="1" style="stop-color:#FC2A65"/>
			</linearGradient>
			<path class="st5" d="M93.5,91.1c-3.1,3.1-18.3-7-33.9-22.6S33.8,37.6,36.9,34.5s18.3,7,33.9,22.6S96.6,88,93.5,91.1z"/>
			
				<linearGradient id="SVGID_6_" gradientUnits="userSpaceOnUse" x1="251.9227" y1="714.5444" x2="331.9227" y2="714.5444" gradientTransform="matrix(0.7071 0.7071 -0.7071 0.7071 393.746 -678.587)">
				<stop  offset="0" style="stop-color:#FF9187"/>
				<stop  offset="0.1025" style="stop-color:#FF8182"/>
				<stop  offset="0.3681" style="stop-color:#FD5B75"/>
				<stop  offset="0.6148" style="stop-color:#FD406C"/>
				<stop  offset="0.8331" style="stop-color:#FC3067"/>
				<stop  offset="1" style="stop-color:#FC2A65"/>
			</linearGradient>
			<path class="st6" d="M68,3.4c-3.1,3.1,7,18.3,22.6,33.9s30.8,25.8,33.9,22.6l2.8-2.8L70.9,0.6L68,3.4z"/>
			<ellipse transform="matrix(0.7071 -0.7071 0.7071 0.7071 8.6403 78.5596)" class="st7" cx="99.2" cy="28.9" rx="8" ry="40"/>
			<path class="st8" d="M93.5,34.5c13.2,13.2,26.1,22.5,31.6,23.2c-0.7-5.6-10-18.5-23.2-31.6S75.9,3.6,70.3,2.9
				C71,8.5,80.3,21.3,93.5,34.5z"/>
			
				<linearGradient id="SVGID_7_" gradientUnits="userSpaceOnUse" x1="251.9227" y1="804.5444" x2="331.9227" y2="804.5444" gradientTransform="matrix(0.7071 0.7071 -0.7071 0.7071 393.746 -678.587)">
				<stop  offset="0" style="stop-color:#FF9187"/>
				<stop  offset="0.1025" style="stop-color:#FF8182"/>
				<stop  offset="0.3681" style="stop-color:#FD5B75"/>
				<stop  offset="0.6148" style="stop-color:#FD406C"/>
				<stop  offset="0.8331" style="stop-color:#FC3067"/>
				<stop  offset="1" style="stop-color:#FC2A65"/>
			</linearGradient>
			<path class="st9" d="M59.6,125c-3.1,3.1-18.3-7-33.9-22.6S-0.1,71.6,3,68.4s18.3,7,33.9,22.6S62.7,121.9,59.6,125z"/>
			
				<linearGradient id="SVGID_8_" gradientUnits="userSpaceOnUse" x1="251.9227" y1="798.5444" x2="331.9227" y2="798.5444" gradientTransform="matrix(0.7071 0.7071 -0.7071 0.7071 393.746 -678.587)">
				<stop  offset="0" style="stop-color:#FF9187"/>
				<stop  offset="0.1025" style="stop-color:#FF8182"/>
				<stop  offset="0.3681" style="stop-color:#FD5B75"/>
				<stop  offset="0.6148" style="stop-color:#FD406C"/>
				<stop  offset="0.8331" style="stop-color:#FC3067"/>
				<stop  offset="1" style="stop-color:#FC2A65"/>
			</linearGradient>
			<path class="st10" d="M5.8,65.6c3.1-3.1,18.3,7,33.9,22.6s25.8,30.8,22.6,33.9l-2.8,2.8L3,68.4L5.8,65.6z"/>
			<ellipse transform="matrix(0.7071 -0.7071 0.7071 0.7071 9.9081 79.499)" class="st11" cx="100.9" cy="27.8" rx="1" ry="4.5"/>
		</g>
	</g>
</g>
</svg>
