<?xml version="1.0" encoding="utf-8"?>
<!-- Generator: Adobe Illustrator 19.2.0, SVG Export Plug-In . SVG Version: 6.00 Build 0)  -->
<svg version="1.1" id="Layer_1" xmlns="http://www.w3.org/2000/svg" xmlns:xlink="http://www.w3.org/1999/xlink" x="0px" y="0px"
	 viewBox="0 0 160 160" style="enable-background:new 0 0 160 160;" xml:space="preserve">
<style type="text/css">
	.st0{fill:url(#SVGID_1_);}
	.st1{opacity:0.5;fill:#1EB9D4;stroke:#1EB9D4;stroke-width:16;stroke-miterlimit:10;}
	.st2{fill:#EDAB26;stroke:#FFD580;stroke-width:16;stroke-linejoin:round;stroke-miterlimit:10;}
	.st3{opacity:0.3;fill:none;stroke:#EDAB26;stroke-width:16;stroke-miterlimit:10;}
	.st4{fill:#EDAB26;}
	.st5{fill:none;stroke:#FFD580;stroke-width:16;stroke-linejoin:round;stroke-miterlimit:10;}
</style>
<g>
	<linearGradient id="SVGID_1_" gradientUnits="userSpaceOnUse" x1="80.0005" y1="155" x2="80.0005" y2="106.9982">
		<stop  offset="0" style="stop-color:#1EBFDB;stop-opacity:0"/>
		<stop  offset="9.400524e-02" style="stop-color:#1EBFDB;stop-opacity:0.1471"/>
		<stop  offset="0.639" style="stop-color:#1EBFDB"/>
	</linearGradient>
	<path class="st0" d="M141.7,121.3l-12-12c-1.5-1.5-3.6-2.3-5.7-2.3H36c-2.1,0-4.2,0.9-5.7,2.3l-12,12c-1.5,1.5-2.3,3.6-2.3,5.7v8
		c0,2.1,0.9,4.2,2.3,5.7l12,12c1.5,1.5,3.6,2.3,5.7,2.3h88c2.1,0,4.1-0.8,5.7-2.3l12-12c1.5-1.5,2.3-3.5,2.3-5.7v-8
		C144,124.9,143.1,122.8,141.7,121.3z"/>
	<polygon class="st1" points="140,104 52,104 40,116 40,124 52,136 140,136 152,124 152,116 	"/>
	<polygon class="st2" points="124,104 36,104 24,116 24,124 36,136 124,136 136,124 136,116 	"/>
	<polygon class="st3" points="124,92 36,92 24,104 24,112 36,124 124,124 136,112 136,104 	"/>
	<polygon class="st4" points="124,88 36,88 24,100 24,108 36,120 124,120 136,108 136,100 	"/>
	<polygon class="st5" points="124,88 36,88 24,100 24,108 36,120 124,120 136,108 136,100 	"/>
</g>
</svg>
