<?xml version="1.0" encoding="utf-8"?>
<!-- Generator: Adobe Illustrator 19.2.1, SVG Export Plug-In . SVG Version: 6.00 Build 0)  -->
<svg version="1.1" id="Layer_1" xmlns="http://www.w3.org/2000/svg" xmlns:xlink="http://www.w3.org/1999/xlink" x="0px" y="0px"
	 viewBox="0 0 128 128" style="enable-background:new 0 0 128 128;" xml:space="preserve">
<style type="text/css">
	.st0{fill:#EDAB26;stroke:#FFD580;stroke-width:16;stroke-linejoin:round;stroke-miterlimit:10;}
	.st1{opacity:0.3;fill:none;stroke:#EDAB26;stroke-width:16;stroke-miterlimit:10;}
	.st2{fill:#EDAB26;}
	.st3{fill:none;stroke:#FFD580;stroke-width:16;stroke-linejoin:round;stroke-miterlimit:10;}
</style>
<g>
	<polygon class="st0" points="108,63.9 20,63.9 8,75.9 8,95.9 20,95.9 108,95.9 120,95.9 120,75.9 	"/>
	<polygon class="st1" points="108,51.9 20,51.9 8,63.9 8,71.9 8.1,83.9 119.9,83.9 120,71.9 120,63.9 	"/>
	<polygon class="st0" points="108,48.1 20,48.1 8,60.1 8,80.1 20,80.1 108,80.1 120,80.1 120,60.1 	"/>
	<polygon class="st1" points="108,36.1 20,36.1 8,48.1 8,56.1 8.1,68.1 119.9,68.1 120,56.1 120,48.1 	"/>
	<polygon class="st2" points="108,32.1 20,32.1 8,44.1 8,52.1 20,64.1 108,64.1 120,52.1 120,44.1 	"/>
	<polygon class="st3" points="108,32.1 20,32.1 8,32.1 8,64.1 20,64.1 108,64.1 120,64.1 120,32.1 	"/>
</g>
</svg>
