<?xml version="1.0" encoding="utf-8"?>
<!-- Generator: Adobe Illustrator 19.2.1, SVG Export Plug-In . SVG Version: 6.00 Build 0)  -->
<svg version="1.1" id="Layer_1" xmlns="http://www.w3.org/2000/svg" xmlns:xlink="http://www.w3.org/1999/xlink" x="0px" y="0px"
	 viewBox="0 0 128 128" style="enable-background:new 0 0 128 128;" xml:space="preserve">
<style type="text/css">
	.st0{fill:#DE885B;}
	.st1{fill:#CE6844;}
	.st2{clip-path:url(#SVGID_2_);fill:#CE6844;}
	.st3{fill:#D67B54;}
	.st4{clip-path:url(#SVGID_4_);fill:#CE6844;}
	.st5{fill:url(#SVGID_5_);}
	.st6{fill:url(#SVGID_6_);}
	.st7{clip-path:url(#SVGID_8_);fill:#F8B55E;}
	.st8{fill:#F8B55E;}
	.st9{fill:url(#SVGID_9_);}
	.st10{fill:url(#SVGID_10_);}
	.st11{fill:url(#SVGID_11_);}
	.st12{fill:url(#SVGID_12_);}
	.st13{fill:url(#SVGID_13_);}
	.st14{fill:#DA8A3F;}
	.st15{fill:url(#SVGID_14_);}
	.st16{fill:url(#SVGID_15_);}
	.st17{fill:url(#SVGID_16_);}
	.st18{fill:url(#SVGID_17_);}
	.st19{fill:#944218;}
	.st20{fill:url(#SVGID_18_);}
	.st21{fill:url(#SVGID_19_);}
	.st22{fill:url(#SVGID_20_);}
	.st23{fill:url(#SVGID_21_);}
	.st24{fill:url(#SVGID_22_);}
	.st25{clip-path:url(#SVGID_24_);fill:#DA8A3F;}
	.st26{clip-path:url(#SVGID_26_);fill:#DA8A3F;}
	.st27{opacity:0.2;fill:url(#SVGID_27_);enable-background:new    ;}
	.st28{clip-path:url(#SVGID_29_);fill:#05996D;}
	.st29{fill:#05996D;}
</style>
<g>
	<rect y="48" class="st0" width="128" height="48"/>
	<path class="st1" d="M70,60H58c-1.1,0-2-0.9-2-2v-6h16v6C72,59.1,71.1,60,70,60z"/>
	<rect x="8" y="56" class="st1" width="112" height="2"/>
	<g>
		<defs>
			<rect id="SVGID_1_" x="87" y="56" width="24" height="15"/>
		</defs>
		<clipPath id="SVGID_2_">
			<use xlink:href="#SVGID_1_"  style="overflow:visible;"/>
		</clipPath>
		<path class="st2" d="M80.1,32l2.5,0.4c1.6,0.3,2.8,1.8,2.5,3.4l-0.4,2.5c-0.3,1.6,0.9,3.2,2.5,3.4l2.5,0.4
			c1.6,0.3,2.8,1.8,2.5,3.4L91.7,48c-0.3,1.6,0.9,3.2,2.5,3.4l2.5,0.4c1.6,0.3,2.8,1.8,2.5,3.4l-0.4,2.5c-0.3,1.6,0.9,3.2,2.5,3.4
			l2.5,0.4c1.6,0.3,2.8,1.8,2.5,3.4l-0.4,2.5c-0.3,1.6-1.8,2.8-3.4,2.5l-2.5-0.4c-1.6-0.3-2.8-1.8-2.5-3.4l0.4-2.5
			c0.3-1.6-0.9-3.2-2.5-3.4l-2.5-0.4c-1.6-0.3-2.8-1.8-2.5-3.4l0.4-2.5c0.3-1.6-0.9-3.2-2.5-3.4l-2.5-0.4c-1.6-0.3-2.8-1.8-2.5-3.4
			l0.4-2.5c0.3-1.6-0.9-3.2-2.5-3.4l-2.5-0.4c-1.6-0.3-2.8-1.8-2.5-3.4l0.4-2.5C77,32.9,78.5,31.8,80.1,32z"/>
	</g>
	<rect y="16.1" class="st0" width="128" height="32"/>
	<rect x="8" y="32.1" class="st3" width="112" height="1"/>
	<rect x="8" y="24.1" class="st3" width="112" height="1"/>
	<g>
		<defs>
			<rect id="SVGID_3_" x="9" y="16" width="46" height="20"/>
		</defs>
		<clipPath id="SVGID_4_">
			<use xlink:href="#SVGID_3_"  style="overflow:visible;"/>
		</clipPath>
		<path class="st4" d="M11.3,20.6l1.1-1.9c0.7-1.2,2.3-1.6,3.6-0.9l1.9,1.1c1.2,0.7,2.8,0.3,3.6-0.9l1.1-1.9
			c0.7-1.2,2.3-1.6,3.6-0.9l1.9,1.1c1.2,0.7,2.8,0.3,3.6-0.9l1.1-1.9c0.7-1.2,2.3-1.6,3.6-0.9l1.9,1.1c1.2,0.7,2.8,0.3,3.6-0.9
			l1.1-1.9c0.7-1.2,2.3-1.6,3.6-0.9l1.9,1.1c1.2,0.7,1.6,2.3,0.9,3.6L48,16.8c-0.7,1.2-2.3,1.6-3.6,0.9l-1.9-1.1
			c-1.2-0.7-2.8-0.3-3.6,0.9l-1.1,1.9c-0.7,1.2-2.3,1.6-3.6,0.9l-1.9-1.1c-1.2-0.7-2.8-0.3-3.6,0.9l-1.1,1.9
			c-0.7,1.2-2.3,1.6-3.6,0.9l-1.9-1.1c-1.2-0.7-2.8-0.3-3.6,0.9l-1.1,1.9c-0.7,1.2-2.3,1.6-3.6,0.9l-1.9-1.1
			C11,23.5,10.6,21.9,11.3,20.6z"/>
		<path class="st4" d="M16.6,32.1l0.4-2.1c0.2-1.4,1.6-2.4,3-2.1l2.1,0.4c1.4,0.2,2.8-0.7,3-2.1l0.4-2.1c0.2-1.4,1.6-2.4,3-2.1
			l2.1,0.4c1.4,0.2,2.8-0.7,3-2.1l0.4-2.1c0.2-1.4,1.6-2.4,3-2.1l2.1,0.4c1.4,0.2,2.8-0.7,3-2.1l0.4-2.1c0.2-1.4,1.6-2.4,3-2.1
			l2.1,0.4c1.4,0.2,2.4,1.6,2.1,3l-0.4,2.1c-0.2,1.4-1.6,2.4-3,2.1L44.3,17c-1.4-0.2-2.8,0.7-3,2.1l-0.4,2.1c-0.2,1.4-1.6,2.4-3,2.1
			l-2.1-0.4c-1.4-0.2-2.8,0.7-3,2.1l-0.4,2.1c-0.2,1.4-1.6,2.4-3,2.1l-2.1-0.4c-1.4-0.2-2.8,0.7-3,2.1l-0.4,2.1
			c-0.2,1.4-1.6,2.4-3,2.1l-2.1-0.4C17.3,34.9,16.3,33.5,16.6,32.1z"/>
	</g>
	<linearGradient id="SVGID_5_" gradientUnits="userSpaceOnUse" x1="64" y1="40" x2="64" y2="96.0113">
		<stop  offset="0" style="stop-color:#FFD580"/>
		<stop  offset="1" style="stop-color:#F0C086"/>
	</linearGradient>
	<rect y="40" class="st5" width="128" height="8"/>
	<linearGradient id="SVGID_6_" gradientUnits="userSpaceOnUse" x1="64" y1="40" x2="64" y2="96.0113">
		<stop  offset="0" style="stop-color:#FFD580"/>
		<stop  offset="1" style="stop-color:#F0C086"/>
	</linearGradient>
	<rect y="48" class="st6" width="128" height="8"/>
	<g>
		<defs>
			<rect id="SVGID_7_" x="81" y="48" width="22" height="8"/>
		</defs>
		<clipPath id="SVGID_8_">
			<use xlink:href="#SVGID_7_"  style="overflow:visible;"/>
		</clipPath>
		<path class="st7" d="M80.1,31.5l2.5,0.4c1.6,0.3,2.8,1.8,2.5,3.4l-0.4,2.5c-0.3,1.6,0.9,3.2,2.5,3.4l2.5,0.4
			c1.6,0.3,2.8,1.8,2.5,3.4l-0.4,2.5c-0.3,1.6,0.9,3.2,2.5,3.4l2.5,0.4c1.6,0.3,2.8,1.8,2.5,3.4l-0.4,2.5c-0.3,1.6,0.9,3.2,2.5,3.4
			l2.5,0.4c1.6,0.3,2.8,1.8,2.5,3.4l-0.4,2.5c-0.3,1.6-1.8,2.8-3.4,2.5L99.9,69c-1.6-0.3-2.8-1.8-2.5-3.4l0.4-2.5
			c0.3-1.6-0.9-3.2-2.5-3.4l-2.5-0.4c-1.6-0.3-2.8-1.8-2.5-3.4l0.4-2.5c0.3-1.6-0.9-3.2-2.5-3.4l-2.5-0.4c-1.6-0.3-2.8-1.8-2.5-3.4
			l0.4-2.5c0.3-1.6-0.9-3.2-2.5-3.4l-2.5-0.4c-1.6-0.3-2.8-1.8-2.5-3.4l0.4-2.5C77,32.3,78.5,31.2,80.1,31.5z"/>
	</g>
	<path class="st8" d="M72,51H56c-1.1,0-2-0.9-2-2v-6c0-2.2,1.8-4,4-4h12c2.2,0,4,1.8,4,4v6C74,50.1,73.1,51,72,51z"/>
	<linearGradient id="SVGID_9_" gradientUnits="userSpaceOnUse" x1="124" y1="16.1762" x2="124" y2="88.06">
		<stop  offset="0" style="stop-color:#FFD580"/>
		<stop  offset="1" style="stop-color:#F0C086"/>
	</linearGradient>
	<rect x="120" y="56.1" class="st9" width="8" height="32"/>
	<linearGradient id="SVGID_10_" gradientUnits="userSpaceOnUse" x1="4" y1="16.1762" x2="4" y2="88.06">
		<stop  offset="0" style="stop-color:#FFD580"/>
		<stop  offset="1" style="stop-color:#F0C086"/>
	</linearGradient>
	<rect y="56.1" class="st10" width="8" height="32"/>
	<linearGradient id="SVGID_11_" gradientUnits="userSpaceOnUse" x1="64" y1="40" x2="64" y2="96.0113">
		<stop  offset="0" style="stop-color:#F0C086"/>
		<stop  offset="1" style="stop-color:#FFD580"/>
	</linearGradient>
	<rect y="88" class="st11" width="128" height="8"/>
	<polygon class="st8" points="128,48 76,48 0,48 0,49 74,49 128,49 	"/>
	<linearGradient id="SVGID_12_" gradientUnits="userSpaceOnUse" x1="64" y1="50" x2="64" y2="38">
		<stop  offset="0" style="stop-color:#DB9D51"/>
		<stop  offset="1" style="stop-color:#EAB549"/>
	</linearGradient>
	<path class="st12" d="M72,50H56c-1.1,0-2-0.9-2-2v-6c0-2.2,1.8-4,4-4h12c2.2,0,4,1.8,4,4v6C74,49.1,73.1,50,72,50z"/>
	<linearGradient id="SVGID_13_" gradientUnits="userSpaceOnUse" x1="64" y1="58" x2="64" y2="50">
		<stop  offset="0" style="stop-color:#DB9D51"/>
		<stop  offset="1" style="stop-color:#EAB549"/>
	</linearGradient>
	<path class="st13" d="M70,58H58c-1.1,0-2-0.9-2-2v-6h16v6C72,57.1,71.1,58,70,58z"/>
	<rect x="56" y="50" class="st14" width="16" height="1"/>
	<linearGradient id="SVGID_14_" gradientUnits="userSpaceOnUse" x1="124" y1="15.1878" x2="124" y2="90.0476">
		<stop  offset="0" style="stop-color:#FFD580"/>
		<stop  offset="1" style="stop-color:#F0C086"/>
	</linearGradient>
	<path class="st15" d="M121,15.1h6c0.6,0,1,0.4,1,1v24h-8v-24C120,15.5,120.4,15.1,121,15.1z"/>
	<linearGradient id="SVGID_15_" gradientUnits="userSpaceOnUse" x1="4" y1="15.1878" x2="4" y2="90.0476">
		<stop  offset="0" style="stop-color:#FFD580"/>
		<stop  offset="1" style="stop-color:#F0C086"/>
	</linearGradient>
	<path class="st16" d="M1,15.1h6c0.6,0,1,0.4,1,1v24H0v-24C0,15.5,0.4,15.1,1,15.1z"/>
</g>
<circle class="st14" cx="64" cy="51.1" r="5"/>
<linearGradient id="SVGID_16_" gradientUnits="userSpaceOnUse" x1="64" y1="55.0512" x2="64" y2="45.0512">
	<stop  offset="0" style="stop-color:#DB9D51"/>
	<stop  offset="1" style="stop-color:#EAB549"/>
</linearGradient>
<circle class="st17" cx="64" cy="50.1" r="5"/>
<linearGradient id="SVGID_17_" gradientUnits="userSpaceOnUse" x1="-1.800800e-10" y1="96" x2="9.2429" y2="86.7571">
	<stop  offset="0" style="stop-color:#DB9D51"/>
	<stop  offset="1" style="stop-color:#EAB549"/>
</linearGradient>
<path class="st18" d="M6,86L6,86L6,86c0-3.3-2.7-6-6-6h0v16h16v0c0-3.3-2.7-6-6-6h0v0C10,87.8,8.2,86,6,86z"/>
<circle class="st19" cx="5" cy="91" r="2"/>
<g>
	<linearGradient id="SVGID_18_" gradientUnits="userSpaceOnUse" x1="-1.800800e-10" y1="48.0512" x2="9.2429" y2="38.8083">
		<stop  offset="0" style="stop-color:#DB9D51"/>
		<stop  offset="1" style="stop-color:#EAB549"/>
	</linearGradient>
	<path class="st20" d="M6,38.1L6,38.1L6,38.1c0-3.3-2.7-6-6-6h0v16h16v0c0-3.3-2.7-6-6-6h0v0C10,39.8,8.2,38.1,6,38.1z"/>
	<circle class="st19" cx="5" cy="43.1" r="2"/>
</g>
<linearGradient id="SVGID_19_" gradientUnits="userSpaceOnUse" x1="1360" y1="96" x2="1369.2429" y2="86.7571" gradientTransform="matrix(-1 0 0 1 1488 0)">
	<stop  offset="0" style="stop-color:#DB9D51"/>
	<stop  offset="1" style="stop-color:#EAB549"/>
</linearGradient>
<path class="st21" d="M122,86L122,86L122,86c0-3.3,2.7-6,6-6h0v16h-16v0c0-3.3,2.7-6,6-6h0v0C118,87.8,119.8,86,122,86z"/>
<circle class="st19" cx="123" cy="91" r="2"/>
<g>
	
		<linearGradient id="SVGID_20_" gradientUnits="userSpaceOnUse" x1="1360" y1="48.0512" x2="1369.2429" y2="38.8083" gradientTransform="matrix(-1 0 0 1 1488 0)">
		<stop  offset="0" style="stop-color:#DB9D51"/>
		<stop  offset="1" style="stop-color:#EAB549"/>
	</linearGradient>
	<path class="st22" d="M122,38.1L122,38.1L122,38.1c0-3.3,2.7-6,6-6h0v16h-16v0c0-3.3,2.7-6,6-6h0v0C118,39.8,119.8,38.1,122,38.1z"
		/>
	<circle class="st19" cx="123" cy="43.1" r="2"/>
</g>
<circle class="st19" cx="64" cy="49.1" r="2"/>
<polygon class="st19" points="64,49.1 62,53.1 66,53.1 "/>
<rect x="8" y="80" class="st3" width="112" height="1"/>
<rect x="8" y="72" class="st3" width="112" height="1"/>
<rect x="8" y="64" class="st3" width="112" height="1"/>
<linearGradient id="SVGID_21_" gradientUnits="userSpaceOnUse" x1="768" y1="-592" x2="777.2429" y2="-601.2429" gradientTransform="matrix(-8.979319e-11 1 1 8.979319e-11 720 -720)">
	<stop  offset="0" style="stop-color:#DB9D51"/>
	<stop  offset="1" style="stop-color:#EAB549"/>
</linearGradient>
<path class="st23" d="M118,54L118,54L118,54c-3.3,0-6-2.7-6-6v0h16v16h0c-3.3,0-6-2.7-6-6v0h0C119.8,58,118,56.2,118,54z"/>
<circle class="st19" cx="123" cy="53" r="2"/>
<linearGradient id="SVGID_22_" gradientUnits="userSpaceOnUse" x1="768.0512" y1="768" x2="777.2941" y2="758.7571" gradientTransform="matrix(4.489659e-11 1 -1 4.489659e-11 768 -720)">
	<stop  offset="0" style="stop-color:#DB9D51"/>
	<stop  offset="1" style="stop-color:#EAB549"/>
</linearGradient>
<path class="st24" d="M10,54.1L10,54.1L10,54.1c3.3,0,6-2.7,6-6v0H0l0,16h0c3.3,0,6-2.7,6-6v0h0C8.2,58.1,10,56.3,10,54.1z"/>
<circle class="st19" cx="5" cy="53.1" r="2"/>
<g>
	<defs>
		<path id="SVGID_23_" d="M10,54.1L10,54.1L10,54.1c3.3,0,6-2.7,6-6v0H0l0,16h0c3.3,0,6-2.7,6-6v0h0C8.2,58.1,10,56.3,10,54.1z"/>
	</defs>
	<clipPath id="SVGID_24_">
		<use xlink:href="#SVGID_23_"  style="overflow:visible;"/>
	</clipPath>
	<rect y="48.1" class="st25" width="16" height="0.9"/>
</g>
<g>
	<defs>
		<path id="SVGID_25_" d="M118,54.1L118,54.1L118,54.1c-3.3,0-6-2.7-6-6v0h16v16h0c-3.3,0-6-2.7-6-6v0h0
			C119.8,58.1,118,56.3,118,54.1z"/>
	</defs>
	<clipPath id="SVGID_26_">
		<use xlink:href="#SVGID_25_"  style="overflow:visible;"/>
	</clipPath>
	<rect x="112" y="48.1" transform="matrix(-1 -4.490642e-11 4.490642e-11 -1 240 97.0512)" class="st26" width="16" height="0.9"/>
</g>
<linearGradient id="SVGID_27_" gradientUnits="userSpaceOnUse" x1="0" y1="56" x2="128" y2="56">
	<stop  offset="0" style="stop-color:#FFD287"/>
	<stop  offset="0.1278" style="stop-color:#FEB18C"/>
	<stop  offset="0.3357" style="stop-color:#FE8194"/>
	<stop  offset="0.5333" style="stop-color:#FD5B99"/>
	<stop  offset="0.7156" style="stop-color:#FC409E"/>
	<stop  offset="0.8767" style="stop-color:#FC30A0"/>
	<stop  offset="1" style="stop-color:#FC2AA1"/>
</linearGradient>
<rect y="16" class="st27" width="128" height="80"/>
<g>
	<defs>
		<rect id="SVGID_28_" x="80" y="48" width="29" height="25"/>
	</defs>
	<clipPath id="SVGID_29_">
		<use xlink:href="#SVGID_28_"  style="overflow:visible;"/>
	</clipPath>
	<path class="st28" d="M80.1,30.5l2.5,0.4c1.6,0.3,2.8,1.8,2.5,3.4l-0.4,2.5c-0.3,1.6,0.9,3.2,2.5,3.4l2.5,0.4
		c1.6,0.3,2.8,1.8,2.5,3.4l-0.4,2.5c-0.3,1.6,0.9,3.2,2.5,3.4l2.5,0.4c1.6,0.3,2.8,1.8,2.5,3.4l-0.4,2.5c-0.3,1.6,0.9,3.2,2.5,3.4
		l2.5,0.4c1.6,0.3,2.8,1.8,2.5,3.4l-0.4,2.5c-0.3,1.6-1.8,2.8-3.4,2.5L99.9,68c-1.6-0.3-2.8-1.8-2.5-3.4l0.4-2.5
		c0.3-1.6-0.9-3.2-2.5-3.4l-2.5-0.4c-1.6-0.3-2.8-1.8-2.5-3.4l0.4-2.5c0.3-1.6-0.9-3.2-2.5-3.4l-2.5-0.4c-1.6-0.3-2.8-1.8-2.5-3.4
		l0.4-2.5c0.3-1.6-0.9-3.2-2.5-3.4l-2.5-0.4c-1.6-0.3-2.8-1.8-2.5-3.4l0.4-2.5C77,31.3,78.5,30.2,80.1,30.5z"/>
</g>
<path class="st29" d="M11.3,19.6l1.2-1.8c0.8-1.2,2.4-1.6,3.6-0.8l1.8,1.2c1.2,0.8,2.8,0.4,3.6-0.8l1.2-1.8c0.8-1.2,2.4-1.6,3.6-0.8
	l1.8,1.2c1.2,0.8,2.8,0.4,3.6-0.8l1.2-1.8c0.8-1.2,2.4-1.6,3.6-0.8l1.8,1.2c1.2,0.8,2.8,0.4,3.6-0.8L43,11c0.8-1.2,2.4-1.6,3.6-0.8
	l1.8,1.2c1.2,0.8,1.6,2.4,0.8,3.6L48,16.7c-0.8,1.2-2.4,1.6-3.6,0.8l-1.8-1.2c-1.2-0.8-2.8-0.4-3.6,0.8L37.9,19
	c-0.8,1.2-2.4,1.6-3.6,0.8l-1.8-1.2c-1.2-0.8-2.8-0.4-3.6,0.8l-1.2,1.8c-0.8,1.2-2.4,1.6-3.6,0.8l-1.8-1.2c-1.2-0.8-2.8-0.4-3.6,0.8
	l-1.2,1.8c-0.8,1.2-2.4,1.6-3.6,0.8l-1.8-1.2C10.8,22.5,10.5,20.8,11.3,19.6z"/>
<path class="st29" d="M16.6,30.8l0.5-2.1c0.3-1.4,1.7-2.3,3.1-2l2.1,0.5c1.4,0.3,2.8-0.6,3.1-2l0.5-2.1c0.3-1.4,1.7-2.3,3.1-2
	l2.1,0.5c1.4,0.3,2.8-0.6,3.1-2l0.5-2.1c0.3-1.4,1.7-2.3,3.1-2l2.1,0.5c1.4,0.3,2.8-0.6,3.1-2l0.5-2.1c0.3-1.4,1.7-2.3,3.1-2
	l2.1,0.5c1.4,0.3,2.3,1.7,2,3.1l-0.5,2.1c-0.3,1.4-1.7,2.3-3.1,2L45,17.1c-1.4-0.3-2.8,0.6-3.1,2l-0.5,2.1c-0.3,1.4-1.7,2.3-3.1,2
	l-2.1-0.5c-1.4-0.3-2.8,0.6-3.1,2l-0.5,2.1c-0.3,1.4-1.7,2.3-3.1,2l-2.1-0.5c-1.4-0.3-2.8,0.6-3.1,2l-0.5,2.1
	c-0.3,1.4-1.7,2.3-3.1,2l-2.1-0.5C17.2,33.6,16.3,32.2,16.6,30.8z"/>
</svg>
