<?xml version="1.0" encoding="utf-8"?>
<!-- Generator: Adobe Illustrator 19.2.1, SVG Export Plug-In . SVG Version: 6.00 Build 0)  -->
<svg version="1.1" id="Layer_1" xmlns="http://www.w3.org/2000/svg" xmlns:xlink="http://www.w3.org/1999/xlink" x="0px" y="0px"
	 viewBox="0 0 128 128" style="enable-background:new 0 0 128 128;" xml:space="preserve">
<style type="text/css">
	.st0{fill:#DE885B;}
	.st1{opacity:0.4;fill:url(#SVGID_1_);}
	.st2{opacity:0.3;clip-path:url(#SVGID_3_);fill:none;stroke:#B35D30;stroke-linecap:round;stroke-miterlimit:10;}
	.st3{opacity:0.3;clip-path:url(#SVGID_3_);fill:none;stroke:#B35D30;stroke-width:2;stroke-linecap:round;stroke-miterlimit:10;}
	.st4{clip-path:url(#SVGID_3_);fill:none;stroke:url(#SVGID_4_);stroke-width:2;stroke-linecap:round;stroke-miterlimit:10;}
	.st5{clip-path:url(#SVGID_3_);fill:none;stroke:url(#SVGID_5_);stroke-width:2.1508;stroke-linecap:round;stroke-miterlimit:10;}
	.st6{clip-path:url(#SVGID_3_);fill:none;stroke:url(#SVGID_6_);stroke-width:2;stroke-linecap:round;stroke-miterlimit:10;}
	.st7{clip-path:url(#SVGID_3_);fill:none;stroke:url(#SVGID_7_);stroke-width:2.0222;stroke-linecap:round;stroke-miterlimit:10;}
	.st8{fill:url(#SVGID_8_);}
	.st9{opacity:0.5;}
	.st10{fill:none;stroke:#DE885B;stroke-width:1.5506;stroke-linecap:round;stroke-miterlimit:10;}
	.st11{opacity:0.4;fill:url(#SVGID_9_);}
	.st12{opacity:0.3;clip-path:url(#SVGID_11_);fill:none;stroke:#B35D30;stroke-linecap:round;stroke-miterlimit:10;}
	.st13{opacity:0.3;clip-path:url(#SVGID_11_);fill:none;stroke:#B35D30;stroke-width:2;stroke-linecap:round;stroke-miterlimit:10;}
	.st14{clip-path:url(#SVGID_11_);fill:none;stroke:url(#SVGID_12_);stroke-width:2;stroke-linecap:round;stroke-miterlimit:10;}
	
		.st15{clip-path:url(#SVGID_11_);fill:none;stroke:url(#SVGID_13_);stroke-width:2.1508;stroke-linecap:round;stroke-miterlimit:10;}
	.st16{clip-path:url(#SVGID_11_);fill:none;stroke:url(#SVGID_14_);stroke-width:2;stroke-linecap:round;stroke-miterlimit:10;}
	
		.st17{clip-path:url(#SVGID_11_);fill:none;stroke:url(#SVGID_15_);stroke-width:2.0222;stroke-linecap:round;stroke-miterlimit:10;}
	.st18{fill:url(#SVGID_16_);}
	.st19{opacity:0.4;fill:url(#SVGID_17_);}
	.st20{opacity:0.3;clip-path:url(#SVGID_19_);fill:none;stroke:#B35D30;stroke-linecap:round;stroke-miterlimit:10;}
	.st21{opacity:0.3;clip-path:url(#SVGID_19_);fill:none;stroke:#B35D30;stroke-width:2;stroke-linecap:round;stroke-miterlimit:10;}
	.st22{clip-path:url(#SVGID_19_);fill:none;stroke:url(#SVGID_20_);stroke-width:2;stroke-linecap:round;stroke-miterlimit:10;}
	
		.st23{clip-path:url(#SVGID_19_);fill:none;stroke:url(#SVGID_21_);stroke-width:2.1508;stroke-linecap:round;stroke-miterlimit:10;}
	.st24{clip-path:url(#SVGID_19_);fill:none;stroke:url(#SVGID_22_);stroke-width:2;stroke-linecap:round;stroke-miterlimit:10;}
	
		.st25{clip-path:url(#SVGID_19_);fill:none;stroke:url(#SVGID_23_);stroke-width:2.0222;stroke-linecap:round;stroke-miterlimit:10;}
	.st26{fill:url(#SVGID_24_);}
	.st27{opacity:0.4;fill:url(#SVGID_25_);}
	.st28{opacity:0.3;clip-path:url(#SVGID_27_);fill:none;stroke:#B35D30;stroke-linecap:round;stroke-miterlimit:10;}
	.st29{opacity:0.3;clip-path:url(#SVGID_27_);fill:none;stroke:#B35D30;stroke-width:2;stroke-linecap:round;stroke-miterlimit:10;}
	.st30{clip-path:url(#SVGID_27_);fill:none;stroke:url(#SVGID_28_);stroke-width:2;stroke-linecap:round;stroke-miterlimit:10;}
	
		.st31{clip-path:url(#SVGID_27_);fill:none;stroke:url(#SVGID_29_);stroke-width:2.1508;stroke-linecap:round;stroke-miterlimit:10;}
	.st32{clip-path:url(#SVGID_27_);fill:none;stroke:url(#SVGID_30_);stroke-width:2;stroke-linecap:round;stroke-miterlimit:10;}
	
		.st33{clip-path:url(#SVGID_27_);fill:none;stroke:url(#SVGID_31_);stroke-width:2.0222;stroke-linecap:round;stroke-miterlimit:10;}
	.st34{fill:url(#SVGID_32_);}
</style>
<g>
	<path class="st0" d="M0,10C0,4.5,7.2,0,16,0s16,4.5,16,10v60c0,5.5-7.2,10-16,10S0,75.5,0,70V10z"/>
	<g>
		<linearGradient id="SVGID_1_" gradientUnits="userSpaceOnUse" x1="0" y1="40" x2="32" y2="40">
			<stop  offset="0" style="stop-color:#FFD287"/>
			<stop  offset="0.1278" style="stop-color:#FEB18C"/>
			<stop  offset="0.3357" style="stop-color:#FE8194"/>
			<stop  offset="0.5333" style="stop-color:#FD5B99"/>
			<stop  offset="0.7156" style="stop-color:#FC409E"/>
			<stop  offset="0.8767" style="stop-color:#FC30A0"/>
			<stop  offset="1" style="stop-color:#FC2AA1"/>
		</linearGradient>
		<path class="st1" d="M0,10C0,4.5,7.2,0,16,0s16,4.5,16,10v60c0,5.5-7.2,10-16,10S0,75.5,0,70V10z"/>
		<g>
			<defs>
				<path id="SVGID_2_" d="M0,10C0,4.5,7.2,0,16,0s16,4.5,16,10v60c0,5.5-7.2,10-16,10S0,75.5,0,70V10z"/>
			</defs>
			<clipPath id="SVGID_3_">
				<use xlink:href="#SVGID_2_"  style="overflow:visible;opacity:0.3;"/>
			</clipPath>
			<path class="st2" d="M29.1,67.9c0.2-6.3,0.5-12.7-0.5-18.9c-0.2-1.6-0.6-3.2-0.6-4.8c-0.1-2.7,0.5-5.3,0.8-8
				c1-6.6,0.7-13.5,0.4-20.2c-0.2-4.8-0.4-9.6-0.6-14.5"/>
			<path class="st2" d="M21.5,64.7c0.3-2.6,0.6-5.4-0.5-7.8c-0.3-0.7-0.8-1.4-1.1-2.2c-0.4-0.8-0.5-1.7-0.7-2.6
				c-0.5-2.8-0.8-5.7-0.3-8.6c0.3-1.9,1-3.7,0.8-5.6c-0.1-0.8-0.4-1.6-0.2-2.5c0.1-0.6,0.4-1.1,0.8-1.6c0.9-1.4,2-2.8,2.4-4.5
				c0.8-2.6,0.1-5.4-0.2-8.1c-0.9-7,0.4-14.1-1-21"/>
			<path class="st2" d="M23.8,63.1c0.4-2.4,0.1-4.9-0.9-7.1c-0.5-1.1-1.2-2.2-1.6-3.4c-0.4-1.4-0.3-3-0.3-4.5c0-1.2-0.1-2.4,0.4-3.4
				c0.4-1.1,1.6-2,2.7-1.6c1.4,0.4,1.6,2.3,1.6,3.8c-0.1,2.9-0.1,5.7-0.2,8.6c0,0.4,0,0.8,0.1,1.1c0.1,0.4,0.3,0.8,0.5,1.2
				c1,2.2,1.2,4.8,0.3,7.1"/>
			<path class="st2" d="M26.2,1.1c0,10.3,0.1,20.6,0.1,30.8c0,2,0,4.2-1.1,5.9c-0.2,0.3-0.4,0.6-0.7,0.7c-0.7,0.3-1.4-0.7-1.5-1.6
				c0-0.9,0.4-1.7,0.8-2.5c0.4-0.8,0.7-1.7,0.4-2.5c0.9-4.8,0.3-9.7,0.1-14.7C24.1,11.5,24.4,5.7,24.7,0"/>
			<path class="st2" d="M11.1,62.9c-0.7-2-0.3-4.2,0.4-6.2c0.7-2,1.7-3.9,2.1-6c1.1-5.3-1.5-10.9-0.1-16.2c0.4-1.4,1-2.8,0.7-4.2
				c-0.2-1-0.9-1.8-1.4-2.7c-1.8-3.1-1.3-7.2,0.8-10.2c1.6-2.4,4.1-4.3,4.6-7.1c0.2-1,0.1-2-0.1-3c-0.3-2.5-0.8-5.1-1.3-7.6"/>
			<path class="st2" d="M19.1,16.6c-1,0.5-1.8,1.5-2.2,2.6c-0.4,1.1-0.5,2.2-0.7,3.4c-0.1,1.1-0.2,2.3,0,3.4
				c0.2,1.1,0.9,2.2,1.9,2.7c0.2,0.1,0.5,0.2,0.7,0.1c0.1-0.1,0.2-0.2,0.3-0.3c0.9-1.4,0.9-3.1,1-4.7c0-2.2,0-4.7-1.6-6.2"/>
			<path class="st2" d="M14.1,62.5c1.3-2.3,1.6-5,1.8-7.6c0.4-5.6,0.2-11.2-0.3-16.8c-0.1-0.9-0.2-1.9,0-2.8
				c0.3-1.5,1.3-2.8,2.3-4.1"/>
			<path class="st2" d="M8.6,64.6c-2.1-1.3-2.2-4.2-2-6.7c0.3-3.9,0.9-7.8,1.7-11.6c0.6-2.8,1.3-5.5,1.5-8.3
				c0.6-7.2-2.1-14.9,0.6-21.6c0.7-1.6,1.6-3.2,2.1-4.9s0.5-3.7-0.6-5.1c-0.4-0.5-0.9-0.8-1.3-1.3C9.4,3.8,8.9,1.5,9.4-0.4"/>
			<path class="st2" d="M14.8-1.2c0.1,1.2,0.3,2.3,0.4,3.5c0.1,0.7,0.1,1.4-0.3,1.9c-0.5,0.6-1.6,0.5-2.2-0.1
				c-0.6-0.6-0.9-1.4-1-2.2c-0.2-1.1-0.4-2.3-0.4-3.4"/>
			<path class="st2" d="M5.1,0.5c-0.6,1.4,0,3,0.8,4.3s1.7,2.5,2.1,4C9.2,13,5.1,17,5,21.4c0,1.3,0.3,2.5,0.4,3.8
				c0.1,2.1-0.3,4.1-0.7,6.2C3.3,39,3.2,46.8,3.1,54.6c0,4.5-0.1,9-0.1,13.5"/>
			<path class="st2" d="M2.6,4.9c0-0.1,0.2-0.1,0.3,0c1.6,1.5,2.3,3.9,1.9,6.1c-0.1,0.3-0.1,0.6-0.3,0.8c-0.2,0.2-0.5,0.3-0.7,0.3
				c-1,0.3-2.2,0.5-3.1-0.1c-0.5-0.4-0.8-1-0.9-1.6s-0.1-1.3-0.1-1.9c0-0.9-0.1-1.9,0.1-2.8s0.5-1.9,1.2-2.5"/>
			<path class="st3" d="M-1,59c0-5.5,7.6-10,17-10s17,4.5,17,10"/>
			<path class="st3" d="M-1,27c0-5.5,7.6-10,17-10s17,4.5,17,10"/>
			<linearGradient id="SVGID_4_" gradientUnits="userSpaceOnUse" x1="-2" y1="53" x2="34" y2="53">
				<stop  offset="0" style="stop-color:#F0C086"/>
				<stop  offset="1" style="stop-color:#DE885B"/>
			</linearGradient>
			<path class="st4" d="M-1,58c0-5.5,7.6-10,17-10s17,4.5,17,10"/>
			
				<linearGradient id="SVGID_5_" gradientUnits="userSpaceOnUse" x1="-2.0754" y1="53" x2="34.0754" y2="53" gradientTransform="matrix(1.1406 -0.191 0.1651 0.9863 -11.002 3.7835)">
				<stop  offset="0" style="stop-color:#F0C086"/>
				<stop  offset="1" style="stop-color:#DE885B"/>
			</linearGradient>
			<path class="st5" d="M-2.6,61.2c-0.9-5.4,7-11.3,17.7-13.1s20.1,1.2,21,6.6"/>
			<linearGradient id="SVGID_6_" gradientUnits="userSpaceOnUse" x1="-2" y1="21" x2="34" y2="21">
				<stop  offset="0" style="stop-color:#F0C086"/>
				<stop  offset="1" style="stop-color:#DE885B"/>
			</linearGradient>
			<path class="st6" d="M-1,26c0-5.5,7.6-10,17-10s17,4.5,17,10"/>
			
				<linearGradient id="SVGID_7_" gradientUnits="userSpaceOnUse" x1="-2.0111" y1="21.4906" x2="35.8358" y2="21.4906" gradientTransform="matrix(0.9763 0.3033 -0.2967 0.955 6.9864 -3.8671)">
				<stop  offset="0" style="stop-color:#F0C086"/>
				<stop  offset="1" style="stop-color:#DE885B"/>
			</linearGradient>
			<path class="st7" d="M-1.7,20.7c1.6-5.3,10.4-7.2,19.6-4.4S34.6,27.2,33,32.5"/>
		</g>
		<g>
			<linearGradient id="SVGID_8_" gradientUnits="userSpaceOnUse" x1="17.7773" y1="80.0796" x2="14.2227" y2="59.9204">
				<stop  offset="0" style="stop-color:#DE885B"/>
				<stop  offset="0.2631" style="stop-color:#E49A69"/>
				<stop  offset="0.728" style="stop-color:#EDB67E"/>
				<stop  offset="1" style="stop-color:#F0C086"/>
			</linearGradient>
			<ellipse class="st8" cx="16" cy="70" rx="16" ry="10"/>
			<g class="st9">
				<path class="st10" d="M16.3,77.3c-6,0-10.9-2.8-10.9-6.3c0-3.5,4.9-6.3,10.9-6.3c4.9,0,8.9,2.3,8.9,5.1s-4,5.1-8.9,5.1
					c-3.8,0-6.8-1.8-6.8-3.9c0-2.2,3.1-3.9,6.8-3.9c2.6,0,4.8,1.2,4.8,2.7s-2.1,2.7-4.8,2.7c-1.5,0-2.7-0.7-2.7-1.6
					c0-0.9,1.2-1.6,2.7-1.6"/>
			</g>
		</g>
	</g>
</g>
<g>
	<path class="st0" d="M32,10c0-5.5,7.2-10,16-10s16,4.5,16,10v60c0,5.5-7.2,10-16,10s-16-4.5-16-10V10z"/>
	<g>
		<linearGradient id="SVGID_9_" gradientUnits="userSpaceOnUse" x1="32" y1="40" x2="64" y2="40">
			<stop  offset="0" style="stop-color:#FFD287"/>
			<stop  offset="0.1278" style="stop-color:#FEB18C"/>
			<stop  offset="0.3357" style="stop-color:#FE8194"/>
			<stop  offset="0.5333" style="stop-color:#FD5B99"/>
			<stop  offset="0.7156" style="stop-color:#FC409E"/>
			<stop  offset="0.8767" style="stop-color:#FC30A0"/>
			<stop  offset="1" style="stop-color:#FC2AA1"/>
		</linearGradient>
		<path class="st11" d="M32,10c0-5.5,7.2-10,16-10s16,4.5,16,10v60c0,5.5-7.2,10-16,10s-16-4.5-16-10V10z"/>
		<g>
			<defs>
				<path id="SVGID_10_" d="M32,10c0-5.5,7.2-10,16-10s16,4.5,16,10v60c0,5.5-7.2,10-16,10s-16-4.5-16-10V10z"/>
			</defs>
			<clipPath id="SVGID_11_">
				<use xlink:href="#SVGID_10_"  style="overflow:visible;opacity:0.3;"/>
			</clipPath>
			<path class="st12" d="M61.1,67.9c0.2-6.3,0.5-12.7-0.5-18.9c-0.2-1.6-0.6-3.2-0.6-4.8c-0.1-2.7,0.5-5.3,0.8-8
				c1-6.6,0.7-13.5,0.4-20.2c-0.2-4.8-0.4-9.6-0.6-14.5"/>
			<path class="st12" d="M53.5,64.7c0.3-2.6,0.6-5.4-0.5-7.8c-0.3-0.7-0.8-1.4-1.1-2.2c-0.4-0.8-0.5-1.7-0.7-2.6
				c-0.5-2.8-0.8-5.7-0.3-8.6c0.3-1.9,1-3.7,0.8-5.6c-0.1-0.8-0.4-1.6-0.2-2.5c0.1-0.6,0.4-1.1,0.8-1.6c0.9-1.4,2-2.8,2.4-4.5
				c0.8-2.6,0.1-5.4-0.2-8.1c-0.9-7,0.4-14.1-1-21"/>
			<path class="st12" d="M55.8,63.1c0.4-2.4,0.1-4.9-0.9-7.1c-0.5-1.1-1.2-2.2-1.6-3.4c-0.4-1.4-0.3-3-0.3-4.5
				c0-1.2-0.1-2.4,0.4-3.4c0.4-1.1,1.6-2,2.7-1.6c1.4,0.4,1.6,2.3,1.6,3.8c-0.1,2.9-0.1,5.7-0.2,8.6c0,0.4,0,0.8,0.1,1.1
				c0.1,0.4,0.3,0.8,0.5,1.2c1,2.2,1.2,4.8,0.3,7.1"/>
			<path class="st12" d="M58.2,1.1c0,10.3,0.1,20.6,0.1,30.8c0,2,0,4.2-1.1,5.9c-0.2,0.3-0.4,0.6-0.7,0.7c-0.7,0.3-1.4-0.7-1.5-1.6
				s0.4-1.7,0.8-2.5c0.4-0.8,0.7-1.7,0.4-2.5c0.9-4.8,0.3-9.7,0.1-14.7C56.1,11.5,56.4,5.7,56.7,0"/>
			<path class="st12" d="M43.1,62.9c-0.7-2-0.3-4.2,0.4-6.2c0.7-2,1.7-3.9,2.1-6c1.1-5.3-1.5-10.9-0.1-16.2c0.4-1.4,1-2.8,0.7-4.2
				c-0.2-1-0.9-1.8-1.4-2.7c-1.8-3.1-1.3-7.2,0.8-10.2c1.6-2.4,4.1-4.3,4.6-7.1c0.2-1,0.1-2-0.1-3c-0.3-2.5-0.8-5.1-1.3-7.6"/>
			<path class="st12" d="M51.1,16.6c-1,0.5-1.8,1.5-2.2,2.6c-0.4,1.1-0.5,2.2-0.7,3.4c-0.1,1.1-0.2,2.3,0,3.4
				c0.2,1.1,0.9,2.2,1.9,2.7c0.2,0.1,0.5,0.2,0.7,0.1c0.1-0.1,0.2-0.2,0.3-0.3c0.9-1.4,0.9-3.1,1-4.7c0-2.2,0-4.7-1.6-6.2"/>
			<path class="st12" d="M46.1,62.5c1.3-2.3,1.6-5,1.8-7.6c0.4-5.6,0.2-11.2-0.3-16.8c-0.1-0.9-0.2-1.9,0-2.8
				c0.3-1.5,1.3-2.8,2.3-4.1"/>
			<path class="st12" d="M40.6,64.6c-2.1-1.3-2.2-4.2-2-6.7c0.3-3.9,0.9-7.8,1.7-11.6c0.6-2.8,1.3-5.5,1.5-8.3
				c0.6-7.2-2.1-14.9,0.6-21.6c0.7-1.6,1.6-3.2,2.1-4.9c0.5-1.7,0.5-3.7-0.6-5.1c-0.4-0.5-0.9-0.8-1.3-1.3c-1.4-1.5-1.9-3.7-1.3-5.6
				"/>
			<path class="st12" d="M46.8-1.2c0.1,1.2,0.3,2.3,0.4,3.5c0.1,0.7,0.1,1.4-0.3,1.9c-0.5,0.6-1.6,0.5-2.2-0.1
				c-0.6-0.6-0.9-1.4-1-2.2c-0.2-1.1-0.4-2.3-0.4-3.4"/>
			<path class="st12" d="M37.1,0.5c-0.6,1.4,0,3,0.8,4.3s1.7,2.5,2.1,4c1.2,4.2-3,8.2-3.1,12.6c0,1.3,0.3,2.5,0.4,3.8
				c0.1,2.1-0.3,4.1-0.7,6.2c-1.4,7.6-1.4,15.4-1.5,23.2c0,4.5-0.1,9-0.1,13.5"/>
			<path class="st12" d="M34.6,4.9c0-0.1,0.2-0.1,0.3,0c1.6,1.5,2.3,3.9,1.9,6.1c-0.1,0.3-0.1,0.6-0.3,0.8c-0.2,0.2-0.5,0.3-0.7,0.3
				c-1,0.3-2.2,0.5-3.1-0.1c-0.5-0.4-0.8-1-0.9-1.6c-0.1-0.6-0.1-1.3-0.1-1.9c0-0.9-0.1-1.9,0.1-2.8s0.5-1.9,1.2-2.5"/>
			<path class="st13" d="M31,59c0-5.5,7.6-10,17-10s17,4.5,17,10"/>
			<path class="st13" d="M31,27c0-5.5,7.6-10,17-10s17,4.5,17,10"/>
			<linearGradient id="SVGID_12_" gradientUnits="userSpaceOnUse" x1="30" y1="53" x2="66" y2="53">
				<stop  offset="0" style="stop-color:#F0C086"/>
				<stop  offset="1" style="stop-color:#DE885B"/>
			</linearGradient>
			<path class="st14" d="M31,58c0-5.5,7.6-10,17-10s17,4.5,17,10"/>
			
				<linearGradient id="SVGID_13_" gradientUnits="userSpaceOnUse" x1="25.2153" y1="58.2846" x2="61.3661" y2="58.2846" gradientTransform="matrix(1.1406 -0.191 0.1651 0.9863 -11.002 3.7835)">
				<stop  offset="0" style="stop-color:#F0C086"/>
				<stop  offset="1" style="stop-color:#DE885B"/>
			</linearGradient>
			<path class="st15" d="M29.4,61.2c-0.9-5.4,7-11.3,17.7-13.1s20.1,1.2,21,6.6"/>
			<linearGradient id="SVGID_14_" gradientUnits="userSpaceOnUse" x1="30" y1="21" x2="66" y2="21">
				<stop  offset="0" style="stop-color:#F0C086"/>
				<stop  offset="1" style="stop-color:#DE885B"/>
			</linearGradient>
			<path class="st16" d="M31,26c0-5.5,7.6-10,17-10s17,4.5,17,10"/>
			
				<linearGradient id="SVGID_15_" gradientUnits="userSpaceOnUse" x1="27.8811" y1="11.9974" x2="65.728" y2="11.9974" gradientTransform="matrix(0.9763 0.3033 -0.2967 0.955 6.9864 -3.8671)">
				<stop  offset="0" style="stop-color:#F0C086"/>
				<stop  offset="1" style="stop-color:#DE885B"/>
			</linearGradient>
			<path class="st17" d="M30.3,20.7c1.6-5.3,10.4-7.2,19.6-4.4S66.6,27.2,65,32.5"/>
		</g>
		<g>
			<linearGradient id="SVGID_16_" gradientUnits="userSpaceOnUse" x1="49.7773" y1="80.0796" x2="46.2227" y2="59.9204">
				<stop  offset="0" style="stop-color:#DE885B"/>
				<stop  offset="0.2631" style="stop-color:#E49A69"/>
				<stop  offset="0.728" style="stop-color:#EDB67E"/>
				<stop  offset="1" style="stop-color:#F0C086"/>
			</linearGradient>
			<ellipse class="st18" cx="48" cy="70" rx="16" ry="10"/>
			<g class="st9">
				<path class="st10" d="M48.3,77.3c-6,0-10.9-2.8-10.9-6.3c0-3.5,4.9-6.3,10.9-6.3c4.9,0,8.9,2.3,8.9,5.1s-4,5.1-8.9,5.1
					c-3.8,0-6.8-1.8-6.8-3.9c0-2.2,3.1-3.9,6.8-3.9c2.6,0,4.8,1.2,4.8,2.7s-2.1,2.7-4.8,2.7c-1.5,0-2.7-0.7-2.7-1.6
					c0-0.9,1.2-1.6,2.7-1.6"/>
			</g>
		</g>
	</g>
</g>
<g>
	<path class="st0" d="M64,10c0-5.5,7.2-10,16-10s16,4.5,16,10v60c0,5.5-7.2,10-16,10s-16-4.5-16-10V10z"/>
	<g>
		<linearGradient id="SVGID_17_" gradientUnits="userSpaceOnUse" x1="64" y1="40" x2="96" y2="40">
			<stop  offset="0" style="stop-color:#FFD287"/>
			<stop  offset="0.1278" style="stop-color:#FEB18C"/>
			<stop  offset="0.3357" style="stop-color:#FE8194"/>
			<stop  offset="0.5333" style="stop-color:#FD5B99"/>
			<stop  offset="0.7156" style="stop-color:#FC409E"/>
			<stop  offset="0.8767" style="stop-color:#FC30A0"/>
			<stop  offset="1" style="stop-color:#FC2AA1"/>
		</linearGradient>
		<path class="st19" d="M64,10c0-5.5,7.2-10,16-10s16,4.5,16,10v60c0,5.5-7.2,10-16,10s-16-4.5-16-10V10z"/>
		<g>
			<defs>
				<path id="SVGID_18_" d="M64,10c0-5.5,7.2-10,16-10s16,4.5,16,10v60c0,5.5-7.2,10-16,10s-16-4.5-16-10V10z"/>
			</defs>
			<clipPath id="SVGID_19_">
				<use xlink:href="#SVGID_18_"  style="overflow:visible;opacity:0.3;"/>
			</clipPath>
			<path class="st20" d="M93.1,67.9c0.2-6.3,0.5-12.7-0.5-18.9c-0.2-1.6-0.6-3.2-0.6-4.8c-0.1-2.7,0.5-5.3,0.8-8
				c1-6.6,0.7-13.5,0.4-20.2c-0.2-4.8-0.4-9.6-0.6-14.5"/>
			<path class="st20" d="M85.5,64.7c0.3-2.6,0.6-5.4-0.5-7.8c-0.3-0.7-0.8-1.4-1.1-2.2c-0.4-0.8-0.5-1.7-0.7-2.6
				c-0.5-2.8-0.8-5.7-0.3-8.6c0.3-1.9,1-3.7,0.8-5.6c-0.1-0.8-0.4-1.6-0.2-2.5c0.1-0.6,0.4-1.1,0.8-1.6c0.9-1.4,2-2.8,2.4-4.5
				c0.8-2.6,0.1-5.4-0.2-8.1c-0.9-7,0.4-14.1-1-21"/>
			<path class="st20" d="M87.8,63.1c0.4-2.4,0.1-4.9-0.9-7.1c-0.5-1.1-1.2-2.2-1.6-3.4c-0.4-1.4-0.3-3-0.3-4.5
				c0-1.2-0.1-2.4,0.4-3.4c0.4-1.1,1.6-2,2.7-1.6c1.4,0.4,1.6,2.3,1.6,3.8c-0.1,2.9-0.1,5.7-0.2,8.6c0,0.4,0,0.8,0.1,1.1
				c0.1,0.4,0.3,0.8,0.5,1.2c1,2.2,1.2,4.8,0.3,7.1"/>
			<path class="st20" d="M90.2,1.1c0,10.3,0.1,20.6,0.1,30.8c0,2,0,4.2-1.1,5.9c-0.2,0.3-0.4,0.6-0.7,0.7c-0.7,0.3-1.4-0.7-1.5-1.6
				s0.4-1.7,0.8-2.5c0.4-0.8,0.7-1.7,0.4-2.5c0.9-4.8,0.3-9.7,0.1-14.7C88.1,11.5,88.4,5.7,88.7,0"/>
			<path class="st20" d="M75.1,62.9c-0.7-2-0.3-4.2,0.4-6.2c0.7-2,1.7-3.9,2.1-6c1.1-5.3-1.5-10.9-0.1-16.2c0.4-1.4,1-2.8,0.7-4.2
				c-0.2-1-0.9-1.8-1.4-2.7c-1.8-3.1-1.3-7.2,0.8-10.2c1.6-2.4,4.1-4.3,4.6-7.1c0.2-1,0.1-2-0.1-3c-0.3-2.5-0.8-5.1-1.3-7.6"/>
			<path class="st20" d="M83.1,16.6c-1,0.5-1.8,1.5-2.2,2.6s-0.5,2.2-0.7,3.4c-0.1,1.1-0.2,2.3,0,3.4s0.9,2.2,1.9,2.7
				c0.2,0.1,0.5,0.2,0.7,0.1c0.1-0.1,0.2-0.2,0.3-0.3c0.9-1.4,0.9-3.1,1-4.7c0-2.2,0-4.7-1.6-6.2"/>
			<path class="st20" d="M78.1,62.5c1.3-2.3,1.6-5,1.8-7.6c0.4-5.6,0.2-11.2-0.3-16.8c-0.1-0.9-0.2-1.9,0-2.8
				c0.3-1.5,1.3-2.8,2.3-4.1"/>
			<path class="st20" d="M72.6,64.6c-2.1-1.3-2.2-4.2-2-6.7c0.3-3.9,0.9-7.8,1.7-11.6c0.6-2.8,1.3-5.5,1.5-8.3
				c0.6-7.2-2.1-14.9,0.6-21.6c0.7-1.6,1.6-3.2,2.1-4.9s0.5-3.7-0.6-5.1c-0.4-0.5-0.9-0.8-1.3-1.3c-1.4-1.5-1.9-3.7-1.3-5.6"/>
			<path class="st20" d="M78.8-1.2c0.1,1.2,0.3,2.3,0.4,3.5c0.1,0.7,0.1,1.4-0.3,1.9c-0.5,0.6-1.6,0.5-2.2-0.1
				c-0.6-0.6-0.9-1.4-1-2.2c-0.2-1.1-0.4-2.3-0.4-3.4"/>
			<path class="st20" d="M69.1,0.5c-0.6,1.4,0,3,0.8,4.3c0.8,1.3,1.7,2.5,2.1,4c1.2,4.2-3,8.2-3.1,12.6c0,1.3,0.3,2.5,0.4,3.8
				c0.1,2.1-0.3,4.1-0.7,6.2c-1.4,7.6-1.4,15.4-1.5,23.2c0,4.5-0.1,9-0.1,13.5"/>
			<path class="st20" d="M66.6,4.9c0-0.1,0.2-0.1,0.3,0c1.6,1.5,2.3,3.9,1.9,6.1c-0.1,0.3-0.1,0.6-0.3,0.8c-0.2,0.2-0.5,0.3-0.7,0.3
				c-1,0.3-2.2,0.5-3.1-0.1c-0.5-0.4-0.8-1-0.9-1.6s-0.1-1.3-0.1-1.9c0-0.9-0.1-1.9,0.1-2.8s0.5-1.9,1.2-2.5"/>
			<path class="st21" d="M63,59c0-5.5,7.6-10,17-10s17,4.5,17,10"/>
			<path class="st21" d="M63,27c0-5.5,7.6-10,17-10s17,4.5,17,10"/>
			<linearGradient id="SVGID_20_" gradientUnits="userSpaceOnUse" x1="62" y1="53" x2="98" y2="53">
				<stop  offset="0" style="stop-color:#F0C086"/>
				<stop  offset="1" style="stop-color:#DE885B"/>
			</linearGradient>
			<path class="st22" d="M63,58c0-5.5,7.6-10,17-10s17,4.5,17,10"/>
			
				<linearGradient id="SVGID_21_" gradientUnits="userSpaceOnUse" x1="52.506" y1="63.5693" x2="88.6568" y2="63.5693" gradientTransform="matrix(1.1406 -0.191 0.1651 0.9863 -11.002 3.7835)">
				<stop  offset="0" style="stop-color:#F0C086"/>
				<stop  offset="1" style="stop-color:#DE885B"/>
			</linearGradient>
			<path class="st23" d="M61.4,61.2c-0.9-5.4,7-11.3,17.7-13.1s20.1,1.2,21,6.6"/>
			<linearGradient id="SVGID_22_" gradientUnits="userSpaceOnUse" x1="62" y1="21" x2="98" y2="21">
				<stop  offset="0" style="stop-color:#F0C086"/>
				<stop  offset="1" style="stop-color:#DE885B"/>
			</linearGradient>
			<path class="st24" d="M63,26c0-5.5,7.6-10,17-10s17,4.5,17,10"/>
			
				<linearGradient id="SVGID_23_" gradientUnits="userSpaceOnUse" x1="57.7732" y1="2.5043" x2="95.6201" y2="2.5043" gradientTransform="matrix(0.9763 0.3033 -0.2967 0.955 6.9864 -3.8671)">
				<stop  offset="0" style="stop-color:#F0C086"/>
				<stop  offset="1" style="stop-color:#DE885B"/>
			</linearGradient>
			<path class="st25" d="M62.3,20.7c1.6-5.3,10.4-7.2,19.6-4.4S98.6,27.2,97,32.5"/>
		</g>
		<g>
			<linearGradient id="SVGID_24_" gradientUnits="userSpaceOnUse" x1="81.7773" y1="80.0796" x2="78.2227" y2="59.9204">
				<stop  offset="0" style="stop-color:#DE885B"/>
				<stop  offset="0.2631" style="stop-color:#E49A69"/>
				<stop  offset="0.728" style="stop-color:#EDB67E"/>
				<stop  offset="1" style="stop-color:#F0C086"/>
			</linearGradient>
			<ellipse class="st26" cx="80" cy="70" rx="16" ry="10"/>
			<g class="st9">
				<path class="st10" d="M80.3,77.3c-6,0-10.9-2.8-10.9-6.3c0-3.5,4.9-6.3,10.9-6.3c4.9,0,8.9,2.3,8.9,5.1s-4,5.1-8.9,5.1
					c-3.8,0-6.8-1.8-6.8-3.9c0-2.2,3.1-3.9,6.8-3.9c2.6,0,4.8,1.2,4.8,2.7s-2.1,2.7-4.8,2.7c-1.5,0-2.7-0.7-2.7-1.6
					c0-0.9,1.2-1.6,2.7-1.6"/>
			</g>
		</g>
	</g>
</g>
<g>
	<path class="st0" d="M96,10c0-5.5,7.2-10,16-10s16,4.5,16,10v60c0,5.5-7.2,10-16,10s-16-4.5-16-10V10z"/>
	<g>
		<linearGradient id="SVGID_25_" gradientUnits="userSpaceOnUse" x1="96" y1="40" x2="128" y2="40">
			<stop  offset="0" style="stop-color:#FFD287"/>
			<stop  offset="0.1278" style="stop-color:#FEB18C"/>
			<stop  offset="0.3357" style="stop-color:#FE8194"/>
			<stop  offset="0.5333" style="stop-color:#FD5B99"/>
			<stop  offset="0.7156" style="stop-color:#FC409E"/>
			<stop  offset="0.8767" style="stop-color:#FC30A0"/>
			<stop  offset="1" style="stop-color:#FC2AA1"/>
		</linearGradient>
		<path class="st27" d="M96,10c0-5.5,7.2-10,16-10s16,4.5,16,10v60c0,5.5-7.2,10-16,10s-16-4.5-16-10V10z"/>
		<g>
			<defs>
				<path id="SVGID_26_" d="M96,10c0-5.5,7.2-10,16-10s16,4.5,16,10v60c0,5.5-7.2,10-16,10s-16-4.5-16-10V10z"/>
			</defs>
			<clipPath id="SVGID_27_">
				<use xlink:href="#SVGID_26_"  style="overflow:visible;opacity:0.3;"/>
			</clipPath>
			<path class="st28" d="M125.1,67.9c0.2-6.3,0.5-12.7-0.5-18.9c-0.2-1.6-0.6-3.2-0.6-4.8c-0.1-2.7,0.5-5.3,0.8-8
				c1-6.6,0.7-13.5,0.4-20.2c-0.2-4.8-0.4-9.6-0.6-14.5"/>
			<path class="st28" d="M117.5,64.7c0.3-2.6,0.6-5.4-0.5-7.8c-0.3-0.7-0.8-1.4-1.1-2.2c-0.4-0.8-0.5-1.7-0.7-2.6
				c-0.5-2.8-0.8-5.7-0.3-8.6c0.3-1.9,1-3.7,0.8-5.6c-0.1-0.8-0.4-1.6-0.2-2.5c0.1-0.6,0.4-1.1,0.8-1.6c0.9-1.4,2-2.8,2.4-4.5
				c0.8-2.6,0.1-5.4-0.2-8.1c-0.9-7,0.4-14.1-1-21"/>
			<path class="st28" d="M119.8,63.1c0.4-2.4,0.1-4.9-0.9-7.1c-0.5-1.1-1.2-2.2-1.6-3.4c-0.4-1.4-0.3-3-0.3-4.5
				c0-1.2-0.1-2.4,0.4-3.4c0.4-1.1,1.6-2,2.7-1.6c1.4,0.4,1.6,2.3,1.6,3.8c-0.1,2.9-0.1,5.7-0.2,8.6c0,0.4,0,0.8,0.1,1.1
				c0.1,0.4,0.3,0.8,0.5,1.2c1,2.2,1.2,4.8,0.3,7.1"/>
			<path class="st28" d="M122.2,1.1c0,10.3,0.1,20.6,0.1,30.8c0,2,0,4.2-1.1,5.9c-0.2,0.3-0.4,0.6-0.7,0.7c-0.7,0.3-1.4-0.7-1.5-1.6
				s0.4-1.7,0.8-2.5c0.4-0.8,0.7-1.7,0.4-2.5c0.9-4.8,0.3-9.7,0.1-14.7c-0.2-5.7,0.2-11.5,0.5-17.2"/>
			<path class="st28" d="M107.1,62.9c-0.7-2-0.3-4.2,0.4-6.2c0.7-2,1.7-3.9,2.1-6c1.1-5.3-1.5-10.9-0.1-16.2c0.4-1.4,1-2.8,0.7-4.2
				c-0.2-1-0.9-1.8-1.4-2.7c-1.8-3.1-1.3-7.2,0.8-10.2c1.6-2.4,4.1-4.3,4.6-7.1c0.2-1,0.1-2-0.1-3c-0.3-2.5-0.8-5.1-1.3-7.6"/>
			<path class="st28" d="M115.1,16.6c-1,0.5-1.8,1.5-2.2,2.6s-0.5,2.2-0.7,3.4c-0.1,1.1-0.2,2.3,0,3.4s0.9,2.2,1.9,2.7
				c0.2,0.1,0.5,0.2,0.7,0.1c0.1-0.1,0.2-0.2,0.3-0.3c0.9-1.4,0.9-3.1,1-4.7c0-2.2,0-4.7-1.6-6.2"/>
			<path class="st28" d="M110.1,62.5c1.3-2.3,1.6-5,1.8-7.6c0.4-5.6,0.2-11.2-0.3-16.8c-0.1-0.9-0.2-1.9,0-2.8
				c0.3-1.5,1.3-2.8,2.3-4.1"/>
			<path class="st28" d="M104.6,64.6c-2.1-1.3-2.2-4.2-2-6.7c0.3-3.9,0.9-7.8,1.7-11.6c0.6-2.8,1.3-5.5,1.5-8.3
				c0.6-7.2-2.1-14.9,0.6-21.6c0.7-1.6,1.6-3.2,2.1-4.9s0.5-3.7-0.6-5.1c-0.4-0.5-0.9-0.8-1.3-1.3c-1.4-1.5-1.9-3.7-1.3-5.6"/>
			<path class="st28" d="M110.8-1.2c0.1,1.2,0.3,2.3,0.4,3.5c0.1,0.7,0.1,1.4-0.3,1.9c-0.5,0.6-1.6,0.5-2.2-0.1
				c-0.6-0.6-0.9-1.4-1-2.2c-0.2-1.1-0.4-2.3-0.4-3.4"/>
			<path class="st28" d="M101.1,0.5c-0.6,1.4,0,3,0.8,4.3c0.8,1.3,1.7,2.5,2.1,4c1.2,4.2-3,8.2-3.1,12.6c0,1.3,0.3,2.5,0.4,3.8
				c0.1,2.1-0.3,4.1-0.7,6.2c-1.4,7.6-1.4,15.4-1.5,23.2c0,4.5-0.1,9-0.1,13.5"/>
			<path class="st28" d="M98.6,4.9c0-0.1,0.2-0.1,0.3,0c1.6,1.5,2.3,3.9,1.9,6.1c-0.1,0.3-0.1,0.6-0.3,0.8c-0.2,0.2-0.5,0.3-0.7,0.3
				c-1,0.3-2.2,0.5-3.1-0.1c-0.5-0.4-0.8-1-0.9-1.6s-0.1-1.3-0.1-1.9c0-0.9-0.1-1.9,0.1-2.8c0.1-0.9,0.5-1.9,1.2-2.5"/>
			<path class="st29" d="M95,59c0-5.5,7.6-10,17-10s17,4.5,17,10"/>
			<path class="st29" d="M95,27c0-5.5,7.6-10,17-10s17,4.5,17,10"/>
			<linearGradient id="SVGID_28_" gradientUnits="userSpaceOnUse" x1="94" y1="53" x2="130" y2="53">
				<stop  offset="0" style="stop-color:#F0C086"/>
				<stop  offset="1" style="stop-color:#DE885B"/>
			</linearGradient>
			<path class="st30" d="M95,58c0-5.5,7.6-10,17-10s17,4.5,17,10"/>
			
				<linearGradient id="SVGID_29_" gradientUnits="userSpaceOnUse" x1="79.7967" y1="68.8539" x2="115.9475" y2="68.8539" gradientTransform="matrix(1.1406 -0.191 0.1651 0.9863 -11.002 3.7835)">
				<stop  offset="0" style="stop-color:#F0C086"/>
				<stop  offset="1" style="stop-color:#DE885B"/>
			</linearGradient>
			<path class="st31" d="M93.4,61.2c-0.9-5.4,7-11.3,17.7-13.1s20.1,1.2,21,6.6"/>
			<linearGradient id="SVGID_30_" gradientUnits="userSpaceOnUse" x1="94" y1="21" x2="130" y2="21">
				<stop  offset="0" style="stop-color:#F0C086"/>
				<stop  offset="1" style="stop-color:#DE885B"/>
			</linearGradient>
			<path class="st32" d="M95,26c0-5.5,7.6-10,17-10s17,4.5,17,10"/>
			
				<linearGradient id="SVGID_31_" gradientUnits="userSpaceOnUse" x1="87.6654" y1="-6.9888" x2="125.5123" y2="-6.9888" gradientTransform="matrix(0.9763 0.3033 -0.2967 0.955 6.9864 -3.8671)">
				<stop  offset="0" style="stop-color:#F0C086"/>
				<stop  offset="1" style="stop-color:#DE885B"/>
			</linearGradient>
			<path class="st33" d="M94.3,20.7c1.6-5.3,10.4-7.2,19.6-4.4s16.8,10.9,15.1,16.2"/>
		</g>
		<g>
			<linearGradient id="SVGID_32_" gradientUnits="userSpaceOnUse" x1="113.7773" y1="80.0796" x2="110.2227" y2="59.9204">
				<stop  offset="0" style="stop-color:#DE885B"/>
				<stop  offset="0.2631" style="stop-color:#E49A69"/>
				<stop  offset="0.728" style="stop-color:#EDB67E"/>
				<stop  offset="1" style="stop-color:#F0C086"/>
			</linearGradient>
			<ellipse class="st34" cx="112" cy="70" rx="16" ry="10"/>
			<g class="st9">
				<path class="st10" d="M112.3,77.3c-6,0-10.9-2.8-10.9-6.3c0-3.5,4.9-6.3,10.9-6.3c4.9,0,8.9,2.3,8.9,5.1s-4,5.1-8.9,5.1
					c-3.8,0-6.8-1.8-6.8-3.9c0-2.2,3.1-3.9,6.8-3.9c2.6,0,4.8,1.2,4.8,2.7s-2.1,2.7-4.8,2.7c-1.5,0-2.7-0.7-2.7-1.6
					c0-0.9,1.2-1.6,2.7-1.6"/>
			</g>
		</g>
	</g>
</g>
</svg>
