<?xml version="1.0" encoding="utf-8"?>
<!-- Generator: Adobe Illustrator 19.2.1, SVG Export Plug-In . SVG Version: 6.00 Build 0)  -->
<svg version="1.1" id="Layer_1" xmlns="http://www.w3.org/2000/svg" xmlns:xlink="http://www.w3.org/1999/xlink" x="0px" y="0px"
	 viewBox="0 0 96 96" style="enable-background:new 0 0 96 96;" xml:space="preserve">
<style type="text/css">
	.st0{fill:#FFFFFF;}
	.st1{fill:url(#SVGID_1_);}
	.st2{fill:#A0CBDE;}
	.st3{fill:#A9E7F0;}
	.st4{fill:#C8E9F7;}
	.st5{fill:url(#SVGID_2_);}
	.st6{fill:url(#SVGID_3_);}
	.st7{fill:url(#SVGID_4_);}
	.st8{fill:url(#SVGID_5_);}
	.st9{fill:url(#SVGID_6_);}
	.st10{fill:url(#SVGID_7_);}
	.st11{fill:url(#SVGID_8_);}
	.st12{fill:url(#SVGID_9_);}
	.st13{fill:url(#SVGID_10_);}
	.st14{fill:url(#SVGID_11_);}
	.st15{fill:url(#SVGID_12_);}
	.st16{fill:url(#SVGID_13_);}
	.st17{fill:url(#SVGID_14_);}
	.st18{fill:url(#SVGID_15_);}
	.st19{fill:url(#SVGID_16_);}
	.st20{fill:url(#SVGID_17_);}
	.st21{fill:url(#SVGID_18_);}
	.st22{fill:url(#SVGID_19_);}
	.st23{fill:url(#SVGID_20_);}
	.st24{fill:url(#SVGID_21_);}
	.st25{fill:url(#SVGID_22_);}
	.st26{opacity:0.1;clip-path:url(#SVGID_24_);}
	.st27{fill:url(#SVGID_25_);}
	.st28{fill:url(#SVGID_26_);}
	.st29{fill:url(#SVGID_27_);}
	.st30{fill:url(#SVGID_28_);}
	.st31{fill:url(#SVGID_29_);}
	.st32{fill:url(#SVGID_30_);}
	.st33{fill:url(#SVGID_31_);}
	.st34{fill:url(#SVGID_32_);}
</style>
<polygon class="st0" points="27.4,22.2 14.9,27.2 12.4,39.8 4.8,52.3 4.8,57.3 12.4,64.9 14.9,82.4 24.9,90 29.6,87.5 57.6,95 
	72.6,84.9 77.6,77.4 82.7,74.9 90.2,52.3 87.7,32.2 67.6,17.5 57.6,12.1 50,2.1 42.5,2.1 29.9,12.1 "/>
<g>
	<g>
		
			<linearGradient id="SVGID_1_" gradientUnits="userSpaceOnUse" x1="251.344" y1="565.5338" x2="263.344" y2="565.5338" gradientTransform="matrix(0.7071 0.7071 -0.7071 0.7071 278.9039 -527.3337)">
			<stop  offset="0" style="stop-color:#FF9187"/>
			<stop  offset="0.1025" style="stop-color:#FF8182"/>
			<stop  offset="0.3681" style="stop-color:#FD5B75"/>
			<stop  offset="0.6148" style="stop-color:#FD406C"/>
			<stop  offset="0.8331" style="stop-color:#FC3067"/>
			<stop  offset="1" style="stop-color:#FC2A65"/>
		</linearGradient>
		<path class="st1" d="M70.9,51.7l-7.1-7.1c-0.4-0.4-1-0.4-1.4,0L51.1,55.9c-0.4,0.4-0.4,1,0,1.4l7.1,7.1c0.4,0.4,1,0.4,1.4,0
			l11.3-11.3C71.3,52.7,71.3,52.1,70.9,51.7z"/>
		<rect x="49.3" y="60.7" transform="matrix(0.7071 0.7071 -0.7071 0.7071 59.201 -20.4313)" class="st2" width="10" height="1"/>
		<rect x="62.7" y="47.3" transform="matrix(0.7071 0.7071 -0.7071 0.7071 53.6361 -33.8663)" class="st3" width="10" height="1"/>
		<rect x="58.7" y="46.8" transform="matrix(0.7071 0.7071 -0.7071 0.7071 54.6508 -26.4166)" class="st4" width="1" height="12"/>
		<rect x="60.4" y="49.9" transform="matrix(0.7071 0.7071 -0.7071 0.7071 57.8328 -27.7346)" class="st4" width="4" height="12"/>
	</g>
	<g>
		
			<linearGradient id="SVGID_2_" gradientUnits="userSpaceOnUse" x1="251.1445" y1="555.437" x2="263.1445" y2="555.437" gradientTransform="matrix(0.7423 -0.6701 0.6701 0.7423 -493.0844 -189.8615)">
			<stop  offset="0" style="stop-color:#FF9187"/>
			<stop  offset="0.1025" style="stop-color:#FF8182"/>
			<stop  offset="0.3681" style="stop-color:#FD5B75"/>
			<stop  offset="0.6148" style="stop-color:#FD406C"/>
			<stop  offset="0.8331" style="stop-color:#FC3067"/>
			<stop  offset="1" style="stop-color:#FC2A65"/>
		</linearGradient>
		<path class="st5" d="M67.7,40.1l-7.4,6.7c-0.4,0.4-0.4,1-0.1,1.4l10.7,11.9c0.4,0.4,1,0.4,1.4,0.1l7.4-6.7c0.4-0.4,0.4-1,0.1-1.4
			L69.1,40.1C68.7,39.7,68.1,39.7,67.7,40.1z"/>
		<rect x="71.4" y="56.7" transform="matrix(0.7423 -0.6701 0.6701 0.7423 -18.6193 65.8968)" class="st2" width="10" height="1"/>
		<rect x="58.6" y="42.6" transform="matrix(0.7423 -0.6701 0.6701 0.7423 -12.4503 53.73)" class="st3" width="10" height="1"/>
		<rect x="67.6" y="45.8" transform="matrix(0.7423 -0.6701 0.6701 0.7423 -17.1357 59.0017)" class="st4" width="1" height="12"/>
		<rect x="69.5" y="42.8" transform="matrix(0.7423 -0.6701 0.6701 0.7423 -14.2541 60.4628)" class="st4" width="4" height="12"/>
	</g>
	<g>
		
			<linearGradient id="SVGID_3_" gradientUnits="userSpaceOnUse" x1="256.9052" y1="544.4022" x2="268.9052" y2="544.4022" gradientTransform="matrix(0.2627 -0.9649 0.9649 0.2627 -526.2181 149.3453)">
			<stop  offset="0" style="stop-color:#FF9187"/>
			<stop  offset="0.1025" style="stop-color:#FF8182"/>
			<stop  offset="0.3681" style="stop-color:#FD5B75"/>
			<stop  offset="0.6148" style="stop-color:#FD406C"/>
			<stop  offset="0.8331" style="stop-color:#FC3067"/>
			<stop  offset="1" style="stop-color:#FC2A65"/>
		</linearGradient>
		<path class="st6" d="M60.8,31.5l-2.6,9.6c-0.1,0.5,0.2,1.1,0.7,1.2l15.4,4.2c0.5,0.1,1.1-0.2,1.2-0.7l2.6-9.6
			c0.1-0.5-0.2-1.1-0.7-1.2L62,30.8C61.5,30.7,60.9,31,60.8,31.5z"/>
		<rect x="72.3" y="40.7" transform="matrix(0.2627 -0.9649 0.9649 0.2627 17.229 104.9649)" class="st2" width="10" height="1"/>
		<rect x="54" y="35.7" transform="matrix(0.2627 -0.9649 0.9649 0.2627 8.5298 83.596)" class="st3" width="10" height="1"/>
		<rect x="67" y="35.1" transform="matrix(0.2627 -0.9649 0.9649 0.2627 10.0677 95.4251)" class="st4" width="1" height="12"/>
		<rect x="66.7" y="30.8" transform="matrix(0.2627 -0.9649 0.9649 0.2627 15.1288 93.3648)" class="st4" width="4" height="12"/>
	</g>
	<g>
		
			<linearGradient id="SVGID_4_" gradientUnits="userSpaceOnUse" x1="409.3882" y1="-556.1965" x2="421.3882" y2="-556.1965" gradientTransform="matrix(0.7794 -0.6265 0.6265 0.7794 60.4076 744.796)">
			<stop  offset="0" style="stop-color:#FF9187"/>
			<stop  offset="0.1025" style="stop-color:#FF8182"/>
			<stop  offset="0.3681" style="stop-color:#FD5B75"/>
			<stop  offset="0.6148" style="stop-color:#FD406C"/>
			<stop  offset="0.8331" style="stop-color:#FC3067"/>
			<stop  offset="1" style="stop-color:#FC2A65"/>
		</linearGradient>
		<path class="st7" d="M33.9,40.9l-7.8,6.3c-0.4,0.3-0.5,1-0.2,1.4L36,61c0.3,0.4,1,0.5,1.4,0.2l7.8-6.3c0.4-0.3,0.5-1,0.2-1.4
			l-10-12.5C35,40.6,34.4,40.6,33.9,40.9z"/>
		<rect x="36.6" y="57.9" transform="matrix(0.7794 -0.6265 0.6265 0.7794 -27.4367 38.9775)" class="st2" width="10" height="1"/>
		<rect x="24.7" y="43.1" transform="matrix(0.7794 -0.6265 0.6265 0.7794 -20.7848 28.2522)" class="st3" width="10" height="1"/>
		<rect x="33.2" y="46.6" transform="matrix(0.7794 -0.6265 0.6265 0.7794 -25.522 32.7396)" class="st4" width="1" height="12"/>
		<rect x="35.2" y="43.8" transform="matrix(0.7794 -0.6265 0.6265 0.7794 -22.9818 34.3151)" class="st4" width="4" height="12"/>
	</g>
	<g>
		
			<linearGradient id="SVGID_5_" gradientUnits="userSpaceOnUse" x1="687.569" y1="801.3404" x2="699.569" y2="801.3404" gradientTransform="matrix(8.083785e-02 0.9967 -0.9967 8.083785e-02 781.2988 -695.7004)">
			<stop  offset="0" style="stop-color:#FF9187"/>
			<stop  offset="0.1025" style="stop-color:#FF8182"/>
			<stop  offset="0.3681" style="stop-color:#FD5B75"/>
			<stop  offset="0.6148" style="stop-color:#FD406C"/>
			<stop  offset="0.8331" style="stop-color:#FC3067"/>
			<stop  offset="1" style="stop-color:#FC2A65"/>
		</linearGradient>
		<path class="st8" d="M48,64.6l-0.8-10c0-0.6-0.5-1-1.1-0.9L30.2,55c-0.6,0-1,0.5-0.9,1.1l0.8,10c0,0.6,0.5,1,1.1,0.9l15.9-1.3
			C47.7,65.7,48.1,65.2,48,64.6z"/>
		
			<rect x="24.2" y="60.6" transform="matrix(8.083785e-02 0.9967 -0.9967 8.083785e-02 87.7652 27.1193)" class="st2" width="10" height="1"/>
		
			<rect x="43.1" y="59.1" transform="matrix(8.083785e-02 0.9967 -0.9967 8.083785e-02 103.6412 6.8317)" class="st3" width="10" height="1"/>
		
			<rect x="37.9" y="51.9" transform="matrix(8.083785e-02 0.9967 -0.9967 8.083785e-02 93.0338 14.8866)" class="st4" width="1" height="12"/>
		
			<rect x="36.8" y="56.4" transform="matrix(8.083785e-02 0.9967 -0.9967 8.083785e-02 97.8387 18.6467)" class="st4" width="4" height="12"/>
	</g>
	<g>
		
			<linearGradient id="SVGID_6_" gradientUnits="userSpaceOnUse" x1="268.7805" y1="617.9081" x2="280.7805" y2="617.9081" gradientTransform="matrix(0.8332 0.553 -0.553 0.8332 155.2482 -615.3051)">
			<stop  offset="0" style="stop-color:#FF9187"/>
			<stop  offset="0.1025" style="stop-color:#FF8182"/>
			<stop  offset="0.3681" style="stop-color:#FD5B75"/>
			<stop  offset="0.6148" style="stop-color:#FD406C"/>
			<stop  offset="0.8331" style="stop-color:#FC3067"/>
			<stop  offset="1" style="stop-color:#FC2A65"/>
		</linearGradient>
		<path class="st9" d="M51.7,46.7l-8.3-5.5c-0.5-0.3-1.1-0.2-1.4,0.3l-8.8,13.3c-0.3,0.5-0.2,1.1,0.3,1.4l8.3,5.5
			c0.5,0.3,1.1,0.2,1.4-0.3l8.8-13.3C52.3,47.7,52.1,47.1,51.7,46.7z"/>
		<rect x="32.3" y="58.9" transform="matrix(0.8332 0.553 -0.553 0.8332 39.0614 -10.7012)" class="st2" width="10" height="1"/>
		<rect x="42.8" y="43.1" transform="matrix(0.8332 0.553 -0.553 0.8332 32.0599 -19.1511)" class="st3" width="10" height="1"/>
		<rect x="39.9" y="44.1" transform="matrix(0.8332 0.553 -0.553 0.8332 34.4488 -14.0049)" class="st4" width="1" height="12"/>
		<rect x="42.2" y="46.6" transform="matrix(0.8332 0.553 -0.553 0.8332 36.4501 -15.6631)" class="st4" width="4" height="12"/>
	</g>
	<g>
		
			<linearGradient id="SVGID_7_" gradientUnits="userSpaceOnUse" x1="260.6426" y1="607.4463" x2="272.6426" y2="607.4463" gradientTransform="matrix(0.6995 -0.7146 0.7146 0.6995 -577.0547 -193.5828)">
			<stop  offset="0" style="stop-color:#FF9187"/>
			<stop  offset="0.1025" style="stop-color:#FF8182"/>
			<stop  offset="0.3681" style="stop-color:#FD5B75"/>
			<stop  offset="0.6148" style="stop-color:#FD406C"/>
			<stop  offset="0.8331" style="stop-color:#FC3067"/>
			<stop  offset="1" style="stop-color:#FC2A65"/>
		</linearGradient>
		<path class="st10" d="M40.6,30.9l-7,7.1c-0.4,0.4-0.4,1,0,1.4l11.4,11.2c0.4,0.4,1,0.4,1.4,0l7-7.1c0.4-0.4,0.4-1,0-1.4L42,30.9
			C41.6,30.5,41,30.5,40.6,30.9z"/>
		<rect x="45.4" y="46.9" transform="matrix(0.6995 -0.7146 0.7146 0.6995 -18.7557 50.2327)" class="st2" width="10" height="1"/>
		<rect x="31.8" y="33.6" transform="matrix(0.6995 -0.7146 0.7146 0.6995 -13.3381 36.5355)" class="st3" width="10" height="1"/>
		<rect x="41.3" y="36.6" transform="matrix(0.6995 -0.7146 0.7146 0.6995 -17.8492 42.6713)" class="st4" width="1" height="12"/>
		<rect x="43" y="33.3" transform="matrix(0.6995 -0.7146 0.7146 0.6995 -14.6051 43.9544)" class="st4" width="4" height="12"/>
	</g>
	<g>
		<linearGradient id="SVGID_8_" gradientUnits="userSpaceOnUse" x1="43.516" y1="61.484" x2="55.516" y2="61.484">
			<stop  offset="0" style="stop-color:#FF9187"/>
			<stop  offset="0.1025" style="stop-color:#FF8182"/>
			<stop  offset="0.3681" style="stop-color:#FD5B75"/>
			<stop  offset="0.6148" style="stop-color:#FD406C"/>
			<stop  offset="0.8331" style="stop-color:#FC3067"/>
			<stop  offset="1" style="stop-color:#FC2A65"/>
		</linearGradient>
		<path class="st11" d="M54.5,52.5h-10c-0.6,0-1,0.4-1,1v16c0,0.6,0.4,1,1,1h10c0.6,0,1-0.4,1-1v-16C55.5,52.9,55.1,52.5,54.5,52.5z
			"/>
		<rect x="44.5" y="70.5" class="st2" width="10" height="1"/>
		<rect x="44.5" y="51.5" class="st3" width="10" height="1"/>
		<rect x="46.5" y="55.5" class="st4" width="1" height="12"/>
		<rect x="49.5" y="55.5" class="st4" width="4" height="12"/>
	</g>
	<g>
		
			<linearGradient id="SVGID_9_" gradientUnits="userSpaceOnUse" x1="262.8682" y1="571.1572" x2="274.8682" y2="571.1572" gradientTransform="matrix(0.4858 0.8741 -0.8741 0.4858 433.0919 -445.847)">
			<stop  offset="0" style="stop-color:#FF9187"/>
			<stop  offset="0.1025" style="stop-color:#FF8182"/>
			<stop  offset="0.3681" style="stop-color:#FD5B75"/>
			<stop  offset="0.6148" style="stop-color:#FD406C"/>
			<stop  offset="0.8331" style="stop-color:#FC3067"/>
			<stop  offset="1" style="stop-color:#FC2A65"/>
		</linearGradient>
		<path class="st12" d="M74.7,66.6l-4.9-8.7c-0.3-0.5-0.9-0.7-1.4-0.4l-14,7.8c-0.5,0.3-0.7,0.9-0.4,1.4l4.9,8.7
			c0.3,0.5,0.9,0.7,1.4,0.4l14-7.8C74.8,67.7,75,67.1,74.7,66.6z"/>
		<rect x="51.1" y="70.7" transform="matrix(0.4858 0.8741 -0.8741 0.4858 91.1335 -12.4505)" class="st2" width="10" height="1"/>
		<rect x="67.8" y="61.5" transform="matrix(0.4858 0.8741 -0.8741 0.4858 91.6065 -31.7134)" class="st3" width="10" height="1"/>
		<rect x="62.7" y="58.4" transform="matrix(0.4858 0.8741 -0.8741 0.4858 88.8354 -22.1442)" class="st4" width="1" height="12"/>
		<rect x="63.4" y="62.4" transform="matrix(0.4858 0.8741 -0.8741 0.4858 93.3977 -22.0321)" class="st4" width="4" height="12"/>
	</g>
	<g>
		
			<linearGradient id="SVGID_10_" gradientUnits="userSpaceOnUse" x1="399.8836" y1="-548.3332" x2="411.8836" y2="-548.3332" gradientTransform="matrix(0.4712 -0.882 0.882 0.4712 331.5476 679.5011)">
			<stop  offset="0" style="stop-color:#FF9187"/>
			<stop  offset="0.1025" style="stop-color:#FF8182"/>
			<stop  offset="0.3681" style="stop-color:#FD5B75"/>
			<stop  offset="0.6148" style="stop-color:#FD406C"/>
			<stop  offset="0.8331" style="stop-color:#FC3067"/>
			<stop  offset="1" style="stop-color:#FC2A65"/>
		</linearGradient>
		<path class="st13" d="M33.6,54.5l-4.7,8.8c-0.3,0.5-0.1,1.1,0.4,1.4l14.1,7.5c0.5,0.3,1.1,0.1,1.4-0.4l4.7-8.8
			c0.3-0.5,0.1-1.1-0.4-1.4l-14.1-7.5C34.4,53.8,33.8,54,33.6,54.5z"/>
		<rect x="42.5" y="67.1" transform="matrix(0.4712 -0.882 0.882 0.4712 -34.4966 77.6724)" class="st2" width="10" height="1"/>
		<rect x="25.8" y="58.2" transform="matrix(0.4712 -0.882 0.882 0.4712 -35.4622 58.1566)" class="st3" width="10" height="1"/>
		<rect x="37.5" y="59.3" transform="matrix(0.4712 -0.882 0.882 0.4712 -37.5473 68.0415)" class="st4" width="1" height="12"/>
		<rect x="38.1" y="55.4" transform="matrix(0.4712 -0.882 0.882 0.4712 -32.9251 67.8128)" class="st4" width="4" height="12"/>
	</g>
	<g>
		
			<linearGradient id="SVGID_11_" gradientUnits="userSpaceOnUse" x1="699.8943" y1="798.8574" x2="711.8943" y2="798.8574" gradientTransform="matrix(8.083785e-02 0.9967 -0.9967 8.083785e-02 781.2988 -695.7004)">
			<stop  offset="0" style="stop-color:#FF9187"/>
			<stop  offset="0.1025" style="stop-color:#FF8182"/>
			<stop  offset="0.3681" style="stop-color:#FD5B75"/>
			<stop  offset="0.6148" style="stop-color:#FD406C"/>
			<stop  offset="0.8331" style="stop-color:#FC3067"/>
			<stop  offset="1" style="stop-color:#FC2A65"/>
		</linearGradient>
		<path class="st14" d="M51.5,76.7l-0.8-10c0-0.6-0.5-1-1.1-0.9l-15.9,1.3c-0.6,0-1,0.5-0.9,1.1l0.8,10c0,0.6,0.5,1,1.1,0.9
			l15.9-1.3C51.1,77.8,51.5,77.3,51.5,76.7z"/>
		
			<rect x="27.6" y="72.7" transform="matrix(8.083785e-02 0.9967 -0.9967 8.083785e-02 103.0006 34.7668)" class="st2" width="10" height="1"/>
		
			<rect x="46.6" y="71.2" transform="matrix(8.083785e-02 0.9967 -0.9967 8.083785e-02 118.8766 14.4792)" class="st3" width="10" height="1"/>
		
			<rect x="41.4" y="64" transform="matrix(8.083785e-02 0.9967 -0.9967 8.083785e-02 108.2692 22.534)" class="st4" width="1" height="12"/>
		
			<rect x="40.3" y="68.5" transform="matrix(8.083785e-02 0.9967 -0.9967 8.083785e-02 113.0741 26.2941)" class="st4" width="4" height="12"/>
	</g>
	<g>
		
			<linearGradient id="SVGID_12_" gradientUnits="userSpaceOnUse" x1="697.9003" y1="807.9473" x2="709.9003" y2="807.9473" gradientTransform="matrix(0.4222 0.9065 -0.9065 0.4222 468.9633 -907.6603)">
			<stop  offset="0" style="stop-color:#FF9187"/>
			<stop  offset="0.1025" style="stop-color:#FF8182"/>
			<stop  offset="0.3681" style="stop-color:#FD5B75"/>
			<stop  offset="0.6148" style="stop-color:#FD406C"/>
			<stop  offset="0.8331" style="stop-color:#FC3067"/>
			<stop  offset="1" style="stop-color:#FC2A65"/>
		</linearGradient>
		<path class="st15" d="M44,72.3l-4.2-9.1c-0.2-0.5-0.8-0.7-1.3-0.5l-14.5,6.8c-0.5,0.2-0.7,0.8-0.5,1.3l4.2,9.1
			c0.2,0.5,0.8,0.7,1.3,0.5l14.5-6.8C44,73.4,44.2,72.8,44,72.3z"/>
		<rect x="20.1" y="75" transform="matrix(0.4222 0.9065 -0.9065 0.4222 82.9977 20.8825)" class="st2" width="10" height="1"/>
		<rect x="37.3" y="67" transform="matrix(0.4222 0.9065 -0.9065 0.4222 85.6781 0.6342)" class="st3" width="10" height="1"/>
		<rect x="32.2" y="63.3" transform="matrix(0.4222 0.9065 -0.9065 0.4222 81.6737 10.4056)" class="st4" width="1" height="12"/>
		<rect x="32.6" y="67.3" transform="matrix(0.4222 0.9065 -0.9065 0.4222 86.4693 11.0405)" class="st4" width="4" height="12"/>
	</g>
	<g>
		
			<linearGradient id="SVGID_13_" gradientUnits="userSpaceOnUse" x1="280.7944" y1="622.828" x2="292.7944" y2="622.828" gradientTransform="matrix(0.6532 0.7572 -0.7572 0.6532 330.231 -560.431)">
			<stop  offset="0" style="stop-color:#FF9187"/>
			<stop  offset="0.1025" style="stop-color:#FF8182"/>
			<stop  offset="0.3681" style="stop-color:#FD5B75"/>
			<stop  offset="0.6148" style="stop-color:#FD406C"/>
			<stop  offset="0.8331" style="stop-color:#FC3067"/>
			<stop  offset="1" style="stop-color:#FC2A65"/>
		</linearGradient>
		<path class="st16" d="M56.1,61.5l-6.5-7.6c-0.4-0.4-1-0.5-1.4-0.1L36,64.3c-0.4,0.4-0.5,1-0.1,1.4l6.5,7.6c0.4,0.4,1,0.5,1.4,0.1
			L56,62.9C56.4,62.5,56.4,61.9,56.1,61.5z"/>
		<rect x="33.8" y="69.3" transform="matrix(0.6532 0.7572 -0.7572 0.6532 66.2849 -5.1829)" class="st2" width="10" height="1"/>
		<rect x="48.2" y="56.9" transform="matrix(0.6532 0.7572 -0.7572 0.6532 61.8762 -20.3793)" class="st3" width="10" height="1"/>
		<rect x="43.9" y="55.7" transform="matrix(0.6532 0.7572 -0.7572 0.6532 62.081 -12.201)" class="st4" width="1" height="12"/>
		<rect x="45.3" y="59.1" transform="matrix(0.6532 0.7572 -0.7572 0.6532 65.6802 -13.2452)" class="st4" width="4" height="12"/>
	</g>
	<g>
		<linearGradient id="SVGID_14_" gradientUnits="userSpaceOnUse" x1="46.9873" y1="73.5683" x2="58.9873" y2="73.5683">
			<stop  offset="0" style="stop-color:#FF9187"/>
			<stop  offset="0.1025" style="stop-color:#FF8182"/>
			<stop  offset="0.3681" style="stop-color:#FD5B75"/>
			<stop  offset="0.6148" style="stop-color:#FD406C"/>
			<stop  offset="0.8331" style="stop-color:#FC3067"/>
			<stop  offset="1" style="stop-color:#FC2A65"/>
		</linearGradient>
		<path class="st17" d="M58,64.6H48c-0.6,0-1,0.4-1,1v16c0,0.6,0.4,1,1,1h10c0.6,0,1-0.4,1-1v-16C59,65,58.5,64.6,58,64.6z"/>
		<rect x="48" y="82.6" class="st2" width="10" height="1"/>
		<rect x="48" y="63.6" class="st3" width="10" height="1"/>
		<rect x="50" y="67.6" class="st4" width="1" height="12"/>
		<rect x="53" y="67.6" class="st4" width="4" height="12"/>
	</g>
	<g>
		
			<linearGradient id="SVGID_15_" gradientUnits="userSpaceOnUse" x1="248.586" y1="574.0228" x2="260.586" y2="574.0228" gradientTransform="matrix(0.7071 0.7071 -0.7071 0.7071 278.9039 -527.3337)">
			<stop  offset="0" style="stop-color:#FF9187"/>
			<stop  offset="0.1025" style="stop-color:#FF8182"/>
			<stop  offset="0.3681" style="stop-color:#FD5B75"/>
			<stop  offset="0.6148" style="stop-color:#FD406C"/>
			<stop  offset="0.8331" style="stop-color:#FC3067"/>
			<stop  offset="1" style="stop-color:#FC2A65"/>
		</linearGradient>
		<path class="st18" d="M62.9,55.8l-7.1-7.1c-0.4-0.4-1-0.4-1.4,0L43.1,60c-0.4,0.4-0.4,1,0,1.4l7.1,7.1c0.4,0.4,1,0.4,1.4,0
			l11.3-11.3C63.3,56.8,63.3,56.1,62.9,55.8z"/>
		<rect x="41.3" y="64.8" transform="matrix(0.7071 0.7071 -0.7071 0.7071 59.7372 -13.6209)" class="st2" width="10" height="1"/>
		<rect x="54.7" y="51.4" transform="matrix(0.7071 0.7071 -0.7071 0.7071 54.1723 -27.056)" class="st3" width="10" height="1"/>
		<rect x="50.8" y="50.8" transform="matrix(0.7071 0.7071 -0.7071 0.7071 55.187 -19.6062)" class="st4" width="1" height="12"/>
		<rect x="52.4" y="54" transform="matrix(0.7071 0.7071 -0.7071 0.7071 58.369 -20.9242)" class="st4" width="4" height="12"/>
	</g>
	<g>
		
			<linearGradient id="SVGID_16_" gradientUnits="userSpaceOnUse" x1="401.585" y1="-562.1941" x2="413.585" y2="-562.1941" gradientTransform="matrix(0.4712 -0.882 0.882 0.4712 331.5476 679.5011)">
			<stop  offset="0" style="stop-color:#FF9187"/>
			<stop  offset="0.1025" style="stop-color:#FF8182"/>
			<stop  offset="0.3681" style="stop-color:#FD5B75"/>
			<stop  offset="0.6148" style="stop-color:#FD406C"/>
			<stop  offset="0.8331" style="stop-color:#FC3067"/>
			<stop  offset="1" style="stop-color:#FC2A65"/>
		</linearGradient>
		<path class="st19" d="M22.1,46.4l-4.7,8.8c-0.3,0.5-0.1,1.1,0.4,1.4L32,64.2c0.5,0.3,1.1,0.1,1.4-0.4l4.7-8.8
			c0.3-0.5,0.1-1.1-0.4-1.4L23.5,46C23,45.8,22.4,46,22.1,46.4z"/>
		<rect x="31.1" y="59.1" transform="matrix(0.4712 -0.882 0.882 0.4712 -33.4534 63.3487)" class="st2" width="10" height="1"/>
		<rect x="14.3" y="50.1" transform="matrix(0.4712 -0.882 0.882 0.4712 -34.419 43.8329)" class="st3" width="10" height="1"/>
		<rect x="26" y="51.3" transform="matrix(0.4712 -0.882 0.882 0.4712 -36.5041 53.7179)" class="st4" width="1" height="12"/>
		<rect x="26.7" y="47.3" transform="matrix(0.4712 -0.882 0.882 0.4712 -31.8819 53.4892)" class="st4" width="4" height="12"/>
	</g>
	<g>
		
			<linearGradient id="SVGID_17_" gradientUnits="userSpaceOnUse" x1="690.9653" y1="809.5947" x2="702.9653" y2="809.5947" gradientTransform="matrix(8.083785e-02 0.9967 -0.9967 8.083785e-02 781.2988 -695.7004)">
			<stop  offset="0" style="stop-color:#FF9187"/>
			<stop  offset="0.1025" style="stop-color:#FF8182"/>
			<stop  offset="0.3681" style="stop-color:#FD5B75"/>
			<stop  offset="0.6148" style="stop-color:#FD406C"/>
			<stop  offset="0.8331" style="stop-color:#FC3067"/>
			<stop  offset="1" style="stop-color:#FC2A65"/>
		</linearGradient>
		<path class="st20" d="M40.1,68.7l-0.8-10c0-0.6-0.5-1-1.1-0.9l-15.9,1.3c-0.6,0-1,0.5-0.9,1.1l0.8,10c0,0.6,0.5,1,1.1,0.9
			l15.9-1.3C39.7,69.7,40.1,69.2,40.1,68.7z"/>
		
			<rect x="16.2" y="64.7" transform="matrix(8.083785e-02 0.9967 -0.9967 8.083785e-02 84.4945 38.7709)" class="st2" width="10" height="1"/>
		
			<rect x="35.2" y="63.2" transform="matrix(8.083785e-02 0.9967 -0.9967 8.083785e-02 100.3705 18.4833)" class="st3" width="10" height="1"/>
		
			<rect x="30" y="55.9" transform="matrix(8.083785e-02 0.9967 -0.9967 8.083785e-02 89.7631 26.5382)" class="st4" width="1" height="12"/>
		
			<rect x="28.9" y="60.4" transform="matrix(8.083785e-02 0.9967 -0.9967 8.083785e-02 94.568 30.2983)" class="st4" width="4" height="12"/>
	</g>
	<g>
		
			<linearGradient id="SVGID_18_" gradientUnits="userSpaceOnUse" x1="267.2505" y1="626.2312" x2="279.2505" y2="626.2312" gradientTransform="matrix(0.6532 0.7572 -0.7572 0.6532 330.231 -560.431)">
			<stop  offset="0" style="stop-color:#FF9187"/>
			<stop  offset="0.1025" style="stop-color:#FF8182"/>
			<stop  offset="0.3681" style="stop-color:#FD5B75"/>
			<stop  offset="0.6148" style="stop-color:#FD406C"/>
			<stop  offset="0.8331" style="stop-color:#FC3067"/>
			<stop  offset="1" style="stop-color:#FC2A65"/>
		</linearGradient>
		<path class="st21" d="M44.7,53.4l-6.5-7.6c-0.4-0.4-1-0.5-1.4-0.1L24.6,56.2c-0.4,0.4-0.5,1-0.1,1.4l6.5,7.6
			c0.4,0.4,1,0.5,1.4,0.1l12.1-10.5C45,54.5,45,53.9,44.7,53.4z"/>
		<rect x="22.4" y="61.2" transform="matrix(0.6532 0.7572 -0.7572 0.6532 56.2421 0.6817)" class="st2" width="10" height="1"/>
		<rect x="36.8" y="48.8" transform="matrix(0.6532 0.7572 -0.7572 0.6532 51.8333 -14.5147)" class="st3" width="10" height="1"/>
		<rect x="32.4" y="47.6" transform="matrix(0.6532 0.7572 -0.7572 0.6532 52.0382 -6.3364)" class="st4" width="1" height="12"/>
		<rect x="33.9" y="51.1" transform="matrix(0.6532 0.7572 -0.7572 0.6532 55.6373 -7.3806)" class="st4" width="4" height="12"/>
	</g>
	<g>
		<linearGradient id="SVGID_19_" gradientUnits="userSpaceOnUse" x1="35.5632" y1="65.5364" x2="47.5632" y2="65.5364">
			<stop  offset="0" style="stop-color:#FF9187"/>
			<stop  offset="0.1025" style="stop-color:#FF8182"/>
			<stop  offset="0.3681" style="stop-color:#FD5B75"/>
			<stop  offset="0.6148" style="stop-color:#FD406C"/>
			<stop  offset="0.8331" style="stop-color:#FC3067"/>
			<stop  offset="1" style="stop-color:#FC2A65"/>
		</linearGradient>
		<path class="st22" d="M46.6,56.5h-10c-0.6,0-1,0.4-1,1v16c0,0.6,0.4,1,1,1h10c0.6,0,1-0.4,1-1v-16C47.6,57,47.1,56.5,46.6,56.5z"
			/>
		<rect x="36.6" y="74.5" class="st2" width="10" height="1"/>
		<rect x="36.6" y="55.5" class="st3" width="10" height="1"/>
		<rect x="38.6" y="59.5" class="st4" width="1" height="12"/>
		<rect x="41.6" y="59.5" class="st4" width="4" height="12"/>
	</g>
	<g>
		<linearGradient id="SVGID_20_" gradientUnits="userSpaceOnUse" x1="52.7184" y1="44.7125" x2="64.7184" y2="44.7125">
			<stop  offset="0" style="stop-color:#FF9187"/>
			<stop  offset="0.1025" style="stop-color:#FF8182"/>
			<stop  offset="0.3681" style="stop-color:#FD5B75"/>
			<stop  offset="0.6148" style="stop-color:#FD406C"/>
			<stop  offset="0.8331" style="stop-color:#FC3067"/>
			<stop  offset="1" style="stop-color:#FC2A65"/>
		</linearGradient>
		<path class="st23" d="M63.7,35.7h-10c-0.6,0-1,0.4-1,1v16c0,0.6,0.4,1,1,1h10c0.6,0,1-0.4,1-1v-16C64.7,36.2,64.3,35.7,63.7,35.7z
			"/>
		<rect x="53.7" y="53.7" class="st2" width="10" height="1"/>
		<rect x="53.7" y="34.7" class="st3" width="10" height="1"/>
		<rect x="55.7" y="38.7" class="st4" width="1" height="12"/>
		<rect x="58.7" y="38.7" class="st4" width="4" height="12"/>
	</g>
</g>
<g>
	<radialGradient id="SVGID_21_" cx="47.3485" cy="48.4971" r="44.8908" gradientUnits="userSpaceOnUse">
		<stop  offset="0" style="stop-color:#DBF7FF;stop-opacity:0.5"/>
		<stop  offset="0.2735" style="stop-color:#BAF0F9;stop-opacity:0.6367"/>
		<stop  offset="0.5563" style="stop-color:#9FEBF4;stop-opacity:0.7781"/>
		<stop  offset="0.8077" style="stop-color:#8FE7F1;stop-opacity:0.9038"/>
		<stop  offset="1" style="stop-color:#89E6F0"/>
	</radialGradient>
	<path class="st24" d="M27.2,22c-0.8,0.8-0.7,0.9-1.8,1.3c-1,0.4-1,0.6-2,1c-1,0.4-1.2,0.1-2.2,0.5c-1,0.4-0.9,0.7-2,1.1
		c-1,0.4-1.2,0-2.3,0.4c-1,0.4-1,0.3-1.8,1.2c-0.7,0.8-0.2,0.8-0.4,1.9c-0.2,1,0,1.1-0.2,2.1c-0.2,1-0.4,1-0.6,2.1
		c-0.2,1-0.7,0.9-0.9,2c-0.2,1-0.4,1-0.6,2.1c-0.2,1-0.1,1-0.4,2c-0.4,1,0,1.1-0.6,2c-0.5,0.9-0.7,0.8-1.2,1.7
		c-0.5,0.9-0.2,1.1-0.7,2c-0.5,0.9-1.2,0.5-1.8,1.4c-0.5,0.9-0.1,1.2-0.6,2.1c-0.5,0.9-0.3,1.1-0.8,2c-0.5,0.9-1.3,0.6-1.5,1.6
		c-0.3,1.2-0.1,1.3-0.1,2.5c0,1.3-0.4,1.4,0,2.6c0.4,1,1.1,0.6,1.8,1.3c0.8,0.8,0.7,0.8,1.5,1.5C8.7,61,8.7,61,9.5,61.7
		c0.8,0.8,0.7,0.8,1.4,1.6c0.8,0.8,1,0.6,1.5,1.5c0.5,1,0.1,1.1,0.3,2.2c0.2,1.1,0.5,1,0.6,2.1c0.2,1.1,0.3,1.1,0.5,2.2
		c0.2,1.1-0.3,1.2-0.1,2.3c0.2,1.1,0.2,1.1,0.4,2.2c0.2,1.1,0.4,1.1,0.5,2.2c0.2,1.1,0,1.1,0.2,2.2c0.2,1.1-0.3,1.2,0.3,2.1
		c0.5,0.9,0.8,0.6,1.6,1.2c0.8,0.6,0.5,1,1.4,1.7c0.8,0.6,0.8,0.7,1.6,1.4c0.8,0.6,1.1,0.3,1.9,0.9c0.8,0.6,1,0.4,1.9,1
		c0.8,0.6,0.5,1.9,1.5,1.9c1.3,0,1.1-1.2,2.3-1.8c1.2-0.6,1-1.3,2.4-1.5c1.1-0.2,1.3,0.2,2.3,0.5c1.1,0.3,1,0.6,2.1,0.9
		c1.1,0.3,1,0.4,2.1,0.7c1.1,0.3,1.1,0.2,2.2,0.5c1.1,0.3,0.9,0.8,2,1.1c1.1,0.3,1.1,0.1,2.2,0.4c1.1,0.3,1.2-0.3,2.3,0
		c1.1,0.3,0.9,1,2,1.3c1.1,0.3,1.1,0.3,2.1,0.6c1.1,0.3,1.3-0.4,2.3-0.1c1.1,0.3,1.1,0.3,2.1,0.6c1.1,0.3,1,0.5,2.1,0.8
		c1.1,0.3,1,1.2,2.1,1.1c1.1-0.2,0.6-1.3,1.6-1.9c0.9-0.6,1-0.6,1.9-1.2c0.9-0.6,1.1-0.4,2-1.1c0.9-0.6,1.1-0.4,2-1
		c0.9-0.6,1.1-0.3,2.1-1c0.9-0.6,0.8-0.9,1.7-1.5c0.9-0.6,1.1-0.4,2-1.1s0.6-1,1.4-1.8c0.8-0.8,0.7-0.8,1.4-1.7
		c0.6-0.9,0.7-0.9,1.3-1.9c0.6-0.9,1-0.7,1.6-1.6s0.2-1.3,1-2.1c0.7-0.6,0.6-0.8,1.5-1.2c0.8-0.4,1.1,0.1,2-0.3
		c0.8-0.4,0.9-0.4,1.5-1.1c0.7-0.8,0.4-1,0.7-2c0.3-1-0.1-1.2,0.3-2.2c0.3-1,1-0.8,1.4-1.8c0.3-1,0.3-1,0.6-2.1c0.3-1,0.4-1,0.8-2
		c0.3-1-0.3-1.2,0.1-2.2c0.3-1,0.6-0.9,1-2c0.3-1,0.1-1.1,0.5-2.1c0.3-1,0.9-0.9,1.2-1.9c0.3-1,0.2-1.1,0.5-2.1c0.3-1,0.6-1,0.7-2.1
		c0.1-1.1,0.1-1.1,0-2.3c-0.1-1.1-0.5-1.1-0.6-2.2c-0.1-1.1-0.2-1.1-0.3-2.2c-0.1-1.1,0.2-1.2,0-2.3c-0.1-1.1-0.2-1.1-0.3-2.2
		c-0.1-1.1-0.5-1.1-0.6-2.2c-0.1-1.1,0.2-1.2,0-2.3c-0.1-1.1-0.5-1.1-0.7-2.2c-0.1-1.1,0.3-1.1-0.3-2.1c-0.6-1-0.3-1.2-1.2-1.9
		c-0.9-0.7-1.2-0.3-2.1-0.9c-0.9-0.7-0.9-0.6-1.8-1.3c-0.9-0.7-0.9-0.7-1.8-1.3c-0.9-0.7-0.6-1.1-1.5-1.8c-0.9-0.7-1-0.6-1.9-1.3
		c-0.9-0.7-1-0.6-1.9-1.2c-0.9-0.7-0.9-0.6-1.9-1.3c-0.9-0.7-1.2-0.3-2.1-1c-0.9-0.7-1.1-0.5-2-1.2c-0.9-0.7-0.8-0.8-1.7-1.5
		c-1-0.6-0.7-1.1-1.7-1.6c-1-0.5-1.2-0.1-2.2-0.7c-1-0.5-1.2-0.3-2.2-0.8c-1-0.5-0.6-1.3-1.6-1.9c-1-0.5-1.4,0.1-2.3-0.6
		c-0.8-0.7-0.3-1.1-0.9-1.9C56,9.4,56,9.4,55.3,8.6C54.7,7.8,54.7,7.8,54,7c-0.6-0.8-0.6-0.9-1.2-1.7c-0.6-0.8-0.7-0.8-1.3-1.6
		s-0.7-0.7-1.6-1.2C48.7,1.9,48.8,2,47.5,2c-1.3,0-1.3,0.4-2.5,0.4c-1.3,0-1.4-1-2.6-0.6c-1.1,0.4-0.8,1-1.7,1.7
		c-0.9,0.7-0.7,1-1.6,1.7c-0.9,0.7-1,0.6-1.9,1.3c-0.9,0.7-0.8,0.9-1.7,1.6c-0.9,0.7-0.9,0.8-1.8,1.5c-0.9,0.7-1.1,0.5-2,1.2
		c-0.9,0.7-1.2,0.4-1.8,1.4c-0.6,0.9-0.6,0.9-0.9,1.9c-0.3,1,0.1,1.1-0.2,2.1c-0.3,1-0.3,1-0.6,2c-0.3,1-0.6,1-0.7,2
		C27.5,21.1,27.9,21.2,27.2,22z"/>
</g>
<linearGradient id="SVGID_22_" gradientUnits="userSpaceOnUse" x1="43.688" y1="4.1875" x2="49.4375" y2="4.1875">
	<stop  offset="0" style="stop-color:#89E6F0"/>
	<stop  offset="0.1923" style="stop-color:#8FE7F1;stop-opacity:0.9038"/>
	<stop  offset="0.4437" style="stop-color:#9FEBF4;stop-opacity:0.7781"/>
	<stop  offset="0.7265" style="stop-color:#BAF0F9;stop-opacity:0.6367"/>
	<stop  offset="1" style="stop-color:#DBF7FF;stop-opacity:0.5"/>
</linearGradient>
<polygon class="st25" points="45.9,3 43.8,2.8 43.7,3.7 45.4,5.5 47,5.6 48.9,5.6 49.4,3.2 47,2.9 "/>
<g>
	<defs>
		<polygon id="SVGID_23_" points="27.4,22.2 14.9,27.2 12.4,39.8 4.8,52.3 4.8,57.3 12.4,64.9 14.9,82.4 24.9,90 29.6,87.5 57.6,95 
			72.6,84.9 77.6,77.4 82.7,74.9 90.2,52.3 87.7,32.2 67.6,17.5 57.6,12.1 50,2.1 42.5,2.1 29.9,12.1 		"/>
	</defs>
	<clipPath id="SVGID_24_">
		<use xlink:href="#SVGID_23_"  style="overflow:visible;"/>
	</clipPath>
	<g class="st26">
		<g>
			<linearGradient id="SVGID_25_" gradientUnits="userSpaceOnUse" x1="47.9859" y1="10.378" x2="71.2935" y2="13.6537">
				<stop  offset="0" style="stop-color:#FF9187"/>
				<stop  offset="0.1025" style="stop-color:#FF8182"/>
				<stop  offset="0.3681" style="stop-color:#FD5B75"/>
				<stop  offset="0.6148" style="stop-color:#FD406C"/>
				<stop  offset="0.8331" style="stop-color:#FC3067"/>
				<stop  offset="1" style="stop-color:#FC2A65"/>
			</linearGradient>
			<path class="st27" d="M51.5,4.9l0.2,0l1.2,1.2l0.4,0.4l0.6,0l1.4,0.1l1.3,0.5l0.5,0.2l0.5-0.2L59,6.8l0.9,0.4L61.2,8l0.6,0.4
				l0.7-0.2l0.8-0.3l0.3,0.7L64,9.5l1,0l1.2,0l0.3,0.4l0.2,1.4l0.1,0.4l0.3,0.3l0.7,0.9l0.2,1.1l0.1,0.4l0.2,0.3l0.6,0.8l0,0.9
				l0,0.2l0.1,0.2l0,0.1l-0.3,0l-0.9,0l-0.4,0.8l-0.5,1l-0.8,0.1l-1.1,0l-1-0.7l-1.3-0.9l-0.5-0.4l-0.6,0.1l-0.6,0.1l-0.2-0.7
				l-0.2-0.5l-0.4-0.3l-1.3-0.9l-0.1-0.1l-0.1-0.1l-1-0.5l-0.3-1.1L57,12.7l-0.2-0.2l-1-1.3l-0.3-0.3l-0.4-0.1L53.6,10l-0.7-0.6
				l-0.1-1.3l-0.1-0.6l-0.5-0.4l-0.8-0.7l0.1-1.2L51.5,4.9 M50.8,3.2l-1.9,0.4L50,5.1l-0.1,2l1.4,1.2l0.2,1.9l1.3,1.2l1.9,0.7l1,1.3
				l0.5,1.7l1.6,0.8l1.3,0.9l0.7,1.9l1.9-0.4l1.3,0.9l1.4,1l1.6,0l1.7-0.1l0.9-1.7l2.1-0.1l-0.5-2l0-1.4l-0.9-1.2L69,12.3l-0.9-1.2
				l-0.2-1.8l-1-1.3L65,8l-0.9-1.9L62,6.7l-1.4-0.9L59,5.2l-1.8,0.6l-1.6-0.6L54,5.1l-1.5-1.5L50.8,3.2L50.8,3.2z"/>
		</g>
	</g>
	<g class="st26">
		<g>
			<linearGradient id="SVGID_26_" gradientUnits="userSpaceOnUse" x1="45.8633" y1="15.5282" x2="60.175" y2="17.5396">
				<stop  offset="0" style="stop-color:#FF9187"/>
				<stop  offset="0.1025" style="stop-color:#FF8182"/>
				<stop  offset="0.3681" style="stop-color:#FD5B75"/>
				<stop  offset="0.6148" style="stop-color:#FD406C"/>
				<stop  offset="0.8331" style="stop-color:#FC3067"/>
				<stop  offset="1" style="stop-color:#FC2A65"/>
			</linearGradient>
			<path class="st28" d="M49.9,6.8l0.2,0.1l0.5,1.2l0.2,0.5l0.5,0.3l0.8,0.4l0,1.2l0,1l0.9,0.4l1.6,0.6l0.9,0.7L56,14l-0.4,1.6
				l-0.1,0.5l0.2,0.5l0.5,1l-0.1,1.1l0,0.6l0.4,0.5l0.8,0.8l-0.1,0.6l-0.6,1.2l-0.4,0.7l0.4,0.7l0.2,0.4l-0.4,0.1l-0.9,0.3l-0.1,1
				l-0.1,0.9l-0.9-0.6l-0.2-0.2l-0.3-0.1l-0.8-0.2l-0.5-0.7l-0.3-0.4l-0.4-0.1l-1-0.3l-0.6-0.8l-0.3-0.4l-0.5-0.2l-0.4-0.2l0.3-0.6
				l0.5-1.2L49,20.1l-1.2-0.7l-0.1-1l-0.1-1.3l0.6-1.3l0-0.1l0-0.1l0.6-1.6l0.3-0.7l-0.4-0.6l-0.4-0.7l0.7-0.6l0.5-0.4l0.1-0.6
				l0.2-1.7l0-0.2l0-0.2l-0.2-1.1L49.9,6.8 M49,4.5l0.1,1l-1.1,1.5l0.4,1.8l-0.2,1.7l-1.7,1.4l1.1,1.8l-0.6,1.6L46,16.9l0.2,1.7
				l0.2,1.8l1.8,1l-0.9,2.1l2,0.7l0.9,1.2l1.5,0.5l0.9,1.1l1.3,0.3l1.5,1.1l1.7-0.5l0.1-2l2-0.7L58,23.2l0.7-1.4l0.2-1.5l-1.3-1.4
				l0.1-1.5L57,16l0.5-2.1l-0.7-1.6l-1.4-1.1l-1.8-0.7l-0.1-2.1l-1.6-0.8l-0.7-1.6L49.8,5L49,4.5L49,4.5z"/>
		</g>
	</g>
</g>
<g>
	<linearGradient id="SVGID_27_" gradientUnits="userSpaceOnUse" x1="22.6843" y1="19.7723" x2="53.3051" y2="31.7862">
		<stop  offset="0" style="stop-color:#FFFFFF;stop-opacity:0"/>
		<stop  offset="1" style="stop-color:#FFFFFF"/>
	</linearGradient>
	<polygon class="st29" points="35,14.1 47.5,30 17.9,28.4 38.6,27.1 32.6,23.2 34.6,23.2 35.2,20.2 32,12.9 	"/>
	<linearGradient id="SVGID_28_" gradientUnits="userSpaceOnUse" x1="15.417" y1="40.9123" x2="32.2939" y2="47.5339">
		<stop  offset="0" style="stop-color:#FFFFFF;stop-opacity:0"/>
		<stop  offset="1" style="stop-color:#FFFFFF"/>
	</linearGradient>
	<polygon class="st30" points="18.5,32.4 10.9,50.6 31.4,40.7 22,39 21.7,37.5 32.6,36.2 	"/>
	<linearGradient id="SVGID_29_" gradientUnits="userSpaceOnUse" x1="62.8282" y1="43.8295" x2="77.8023" y2="49.7045">
		<stop  offset="0" style="stop-color:#FFFFFF;stop-opacity:0"/>
		<stop  offset="1" style="stop-color:#FFFFFF"/>
	</linearGradient>
	<polygon class="st31" points="66.1,37.1 77.5,42.3 59.5,50.6 	"/>
	<linearGradient id="SVGID_30_" gradientUnits="userSpaceOnUse" x1="39.3375" y1="9.0346" x2="49.3901" y2="12.9787">
		<stop  offset="0" style="stop-color:#FFFFFF;stop-opacity:0"/>
		<stop  offset="1" style="stop-color:#FFFFFF"/>
	</linearGradient>
	<polygon class="st32" points="43.7,3.7 39.1,8.4 40.8,10.7 39.4,15 44.3,18 41.8,13.8 44.4,12.8 47.1,13.5 44.7,9.2 41.9,8.8 
		46.2,6.2 	"/>
</g>
<g>
	<g>
		<linearGradient id="SVGID_31_" gradientUnits="userSpaceOnUse" x1="48.9604" y1="8.7588" x2="72.5613" y2="8.7588">
			<stop  offset="0" style="stop-color:#FF9187"/>
			<stop  offset="0.1025" style="stop-color:#FF8182"/>
			<stop  offset="0.3681" style="stop-color:#FD5B75"/>
			<stop  offset="0.6148" style="stop-color:#FD406C"/>
			<stop  offset="0.8331" style="stop-color:#FC3067"/>
			<stop  offset="1" style="stop-color:#FC2A65"/>
		</linearGradient>
		<path class="st33" d="M51.8,2.8l0.1,0l1.3,1.1l0.5,0.4l0.6,0l1.4-0.1l1.4,0.4l0.6,0.2l0.5-0.3l1.2-0.7l0.9,0.2l1.4,0.7l0.7,0.3
			l0.7-0.3l0.7-0.4l0.4,0.6l0.5,0.9l1-0.2l1.2-0.2l0.3,0.3l0.3,1.4l0.1,0.4l0.3,0.3l0.8,0.7l0.3,1l0.1,0.4l0.3,0.3l0.7,0.6l0.1,0.8
			l0,0.2l0.1,0.2l0,0.1l-0.2,0l-0.9,0.1L69,13.3l-0.4,1.1l-0.8,0.2l-1.1,0.2l-1.1-0.6l-1.4-0.7L63.7,13L63,13.3l-0.5,0.2l-0.3-0.6
			L62,12.4l-0.5-0.2l-1.4-0.7L60,11.4l-0.1,0l-1-0.3l-0.4-1l-0.1-0.3l-0.2-0.2l-1.2-1.1l-0.3-0.3L56.1,8l-1.7-0.4l-0.7-0.5l-0.3-1.3
			l-0.1-0.6L52.7,5l-0.9-0.5l-0.1-1.2L51.8,2.8 M50.8,1.2L49,1.9l1.3,1.3l0.1,2l1.5,0.9l0.4,1.9l1.5,1l2,0.4l1.2,1.1l0.7,1.7
			l1.7,0.5l1.4,0.7l0.9,1.9l1.8-0.7l1.4,0.7l1.5,0.9l1.6-0.2l1.6-0.4l0.6-1.9l2.2-0.3l-0.9-1.9l-0.2-1.4l-1.1-1L70,7.7l-1-1
			l-0.4-1.8l-1.1-1.2l-1.9,0.3l-1.1-1.9l-2,1l-1.5-0.8l-1.6-0.4L57.4,3l-1.6-0.4l-1.7,0.1l-1.7-1.4L50.8,1.2L50.8,1.2z"/>
	</g>
</g>
<g>
	<g>
		<linearGradient id="SVGID_32_" gradientUnits="userSpaceOnUse" x1="47.6169" y1="14.1346" x2="62.0074" y2="14.1346">
			<stop  offset="0" style="stop-color:#FF9187"/>
			<stop  offset="0.1025" style="stop-color:#FF8182"/>
			<stop  offset="0.3681" style="stop-color:#FD5B75"/>
			<stop  offset="0.6148" style="stop-color:#FD406C"/>
			<stop  offset="0.8331" style="stop-color:#FC3067"/>
			<stop  offset="1" style="stop-color:#FC2A65"/>
		</linearGradient>
		<path class="st34" d="M50.3,5l0.2,0.1l0.7,1.1l0.3,0.5L52,6.8l0.9,0.3l0.2,1.2l0.2,0.9l0.9,0.2l1.7,0.4l1,0.6l0.5,0.7l-0.1,1.6
			l0,0.5l0.3,0.4l0.7,1l0.1,1.1l0.1,0.6l0.5,0.4l0.9,0.7l0,0.6l-0.4,1.3l-0.2,0.7l0.4,0.6l0.3,0.4l-0.4,0.2L58.6,22l0.1,0.9l0.1,0.9
			l0,0l-1-0.5l-0.2-0.1l-0.3,0l-0.8-0.1l-0.7-0.6l-0.3-0.3L55,22.2L54,21.9l-0.7-0.7l-0.3-0.3l-0.5-0.1L52,20.7l0.2-0.6l0.3-1.2
			l-1.2-0.5l-1.2-0.5l-0.3-1l-0.3-1.3l0.4-1.3l0-0.1l0-0.1l0.4-1.7l0.2-0.7l-0.4-0.6l-0.5-0.7l0.6-0.7l0.4-0.4l0-0.6L50.5,7l0-0.2
			l-0.1-0.2L50,5.5L50.3,5 M49.1,2.7l0.2,1l-0.9,1.6L49,7.1L49,8.7l-1.4,1.7l1.3,1.7l-0.4,1.7l-0.6,1.8l0.4,1.7l0.4,1.7l1.9,0.8
			l-0.5,2.2l2,0.4l1,1.1l1.5,0.3l1,1l1.3,0.1l1.6,0.8l1.6-0.7l-0.1-2l1.8-1L60.7,20l0.5-1.5l0-1.6l-1.4-1.2l-0.2-1.5L58.8,13
			l0.2-2.2L58,9.4l-1.5-0.9L54.6,8l-0.4-2l-1.7-0.6l-0.9-1.5L50,3.2L49.1,2.7L49.1,2.7z"/>
	</g>
</g>
</svg>
