<?xml version="1.0" encoding="utf-8"?>
<!-- Generator: Adobe Illustrator 19.2.1, SVG Export Plug-In . SVG Version: 6.00 Build 0)  -->
<svg version="1.1" id="Layer_1" xmlns="http://www.w3.org/2000/svg" xmlns:xlink="http://www.w3.org/1999/xlink" x="0px" y="0px"
	 viewBox="0 0 48 48" style="enable-background:new 0 0 48 48;" xml:space="preserve">
<style type="text/css">
	.st0{fill:#05996D;}
	.st1{display:none;}
</style>
<g id="Layer_1_1_">
	<g>
		<g>
			<g>
				<g>
					<path class="st0" d="M2.7,16.1L5,15c1.5-0.7,3.3-0.1,4,1.5l1.1,2.3c0.7,1.5,2.5,2.2,4,1.5l2.1-1.1c1.5-0.7,3.3-0.1,4,1.5
						l1.1,2.3c0.7,1.5,2.5,2.2,4,1.5l2.3-1.1c1.5-0.7,3.3-0.1,4,1.5l1.1,2.3c0.7,1.5,2.5,2.2,4,1.5l2.3-1.1c1.5-0.7,3.3-0.1,4,1.5
						l1.1,2.3c0.7,1.5,0.1,3.3-1.5,4l-2.3,1.1c-1.5,0.7-3.3,0.1-4-1.5l-1.1-2.3c-0.7-1.5-2.5-2.2-4-1.5l-2.3,1.1
						c-1.5,0.7-3.3,0.1-4-1.5l-1.1-2.3c-0.7-1.5-2.5-2.2-4-1.5l-2.3,1.1c-1.5,0.7-3.3,0.1-4-1.5l-1-2.4c-0.7-1.5-2.5-2.2-4-1.5
						l-2.3,1.1c-1.5,0.7-3.3,0.1-4-1.5l-1-2.2C0.5,18.6,1.2,16.8,2.7,16.1z"/>
				</g>
			</g>
		</g>
	</g>
	<path class="st0" d="M2.5,16.9L4.1,15c1.1-1.3,3-1.4,4.2-0.3l1.9,1.6c1.3,1.1,3.2,0.9,4.3-0.3l1.6-1.9c1.1-1.3,3-1.4,4.2-0.3
		l1.9,1.6c1.3,1.1,3.2,0.9,4.2-0.3l1.7-1.9c1.1-1.3,3-1.4,4.2-0.3l1.9,1.6c1.2,1,3.1,0.9,4.2-0.4l1.6-1.9c1.1-1.3,3-1.4,4.2-0.3
		l1.9,1.6c1.3,1.1,1.4,3,0.3,4.2l-1.6,1.9c-1.1,1.3-3,1.4-4.2,0.3l-1.9-1.6c-1.3-1.1-3.2-0.9-4.2,0.3l-1.6,1.9
		c-1.1,1.3-3,1.4-4.2,0.3l-1.9-1.6c-1.3-1.1-3.2-0.9-4.2,0.3L21,21.4c-1.1,1.3-3,1.4-4.2,0.3l-2-1.5c-1.3-1.1-3.2-0.9-4.2,0.3
		L9,22.4c-1.1,1.3-3,1.4-4.2,0.3l-2-1.6C1.6,20,1.4,18.1,2.5,16.9z"/>
</g>
<g id="nyt_x5F_exporter_x5F_info" class="st1">
</g>
</svg>
