<?xml version="1.0" encoding="utf-8"?>
<!-- Generator: Adobe Illustrator 19.2.1, SVG Export Plug-In . SVG Version: 6.00 Build 0)  -->
<svg version="1.1" id="Layer_1" xmlns="http://www.w3.org/2000/svg" xmlns:xlink="http://www.w3.org/1999/xlink" x="0px" y="0px"
	 viewBox="0 0 48 48" style="enable-background:new 0 0 48 48;" xml:space="preserve">
<style type="text/css">
	.st0{fill:url(#SVGID_1_);}
	.st1{fill:url(#SVGID_2_);}
	.st2{fill:url(#SVGID_3_);}
	.st3{fill:url(#SVGID_4_);}
	.st4{fill:#FFFFFF;}
	.st5{fill:url(#SVGID_5_);}
	.st6{fill:url(#SVGID_6_);}
	.st7{fill:#1EDB5D;}
	.st8{fill:none;}
</style>
<g>
	<g>
		<g>
			<g>
				
					<linearGradient id="SVGID_1_" gradientUnits="userSpaceOnUse" x1="332.4768" y1="-486.0921" x2="348.4768" y2="-486.0921" gradientTransform="matrix(1 0 0 1 -316.4161 514.092)">
					<stop  offset="0" style="stop-color:#89E6F0"/>
					<stop  offset="0.1923" style="stop-color:#8FE7F1"/>
					<stop  offset="0.4437" style="stop-color:#9FEBF4"/>
					<stop  offset="0.7265" style="stop-color:#BAF0F9"/>
					<stop  offset="1" style="stop-color:#DBF7FF"/>
				</linearGradient>
				<path class="st0" d="M30.1,24h-12c-1.1,0-2,0.9-2,2v4c0,1.1,0.9,2,2,2h12c1.1,0,2-0.9,2-2v-4C32.1,24.9,31.2,24,30.1,24z"/>
				
					<linearGradient id="SVGID_2_" gradientUnits="userSpaceOnUse" x1="332.4768" y1="-494.0921" x2="348.4768" y2="-494.0921" gradientTransform="matrix(1 0 0 1 -316.4161 514.092)">
					<stop  offset="0" style="stop-color:#89E6F0"/>
					<stop  offset="0.1923" style="stop-color:#8FE7F1"/>
					<stop  offset="0.4437" style="stop-color:#9FEBF4"/>
					<stop  offset="0.7265" style="stop-color:#BAF0F9"/>
					<stop  offset="1" style="stop-color:#DBF7FF"/>
				</linearGradient>
				<path class="st1" d="M30.1,16h-12c-1.1,0-2,0.9-2,2v4c0,1.1,0.9,2,2,2h12c1.1,0,2-0.9,2-2v-4C32.1,16.9,31.2,16,30.1,16z"/>
				
					<linearGradient id="SVGID_3_" gradientUnits="userSpaceOnUse" x1="332.4768" y1="-470.0921" x2="348.4768" y2="-470.0921" gradientTransform="matrix(1 0 0 1 -316.4161 514.092)">
					<stop  offset="0" style="stop-color:#89E6F0"/>
					<stop  offset="0.1923" style="stop-color:#8FE7F1"/>
					<stop  offset="0.4437" style="stop-color:#9FEBF4"/>
					<stop  offset="0.7265" style="stop-color:#BAF0F9"/>
					<stop  offset="1" style="stop-color:#DBF7FF"/>
				</linearGradient>
				<path class="st2" d="M30.1,40h-12c-1.1,0-2,0.9-2,2v4c0,1.1,0.9,2,2,2h12c1.1,0,2-0.9,2-2v-4C32.1,40.9,31.2,40,30.1,40z"/>
				
					<linearGradient id="SVGID_4_" gradientUnits="userSpaceOnUse" x1="332.4768" y1="-478.0921" x2="348.4768" y2="-478.0921" gradientTransform="matrix(1 0 0 1 -316.4161 514.092)">
					<stop  offset="0" style="stop-color:#89E6F0"/>
					<stop  offset="0.1923" style="stop-color:#8FE7F1"/>
					<stop  offset="0.4437" style="stop-color:#9FEBF4"/>
					<stop  offset="0.7265" style="stop-color:#BAF0F9"/>
					<stop  offset="1" style="stop-color:#DBF7FF"/>
				</linearGradient>
				<path class="st3" d="M30.1,32h-12c-1.1,0-2,0.9-2,2v4c0,1.1,0.9,2,2,2h12c1.1,0,2-0.9,2-2v-4C32.1,32.9,31.2,32,30.1,32z"/>
				<path class="st4" d="M26.1,0l-4,0c-0.6,0-1,0.4-1,1v2h6V1C27.1,0.4,26.6,0,26.1,0z"/>
				
					<linearGradient id="SVGID_5_" gradientUnits="userSpaceOnUse" x1="332.4768" y1="-504.5921" x2="348.4768" y2="-504.5921" gradientTransform="matrix(1 0 0 1 -316.4161 514.092)">
					<stop  offset="0" style="stop-color:#89E6F0"/>
					<stop  offset="0.1923" style="stop-color:#8FE7F1"/>
					<stop  offset="0.4437" style="stop-color:#9FEBF4"/>
					<stop  offset="0.7265" style="stop-color:#BAF0F9"/>
					<stop  offset="1" style="stop-color:#DBF7FF"/>
				</linearGradient>
				<path class="st5" d="M27.1,3.6V3h-6v0.6c0,0.8-0.5,1.6-1.3,1.9l-2.5,1c-0.8,0.3-1.3,1-1.3,1.9V14c0,1.1,0.9,2,2,2h12
					c1.1,0,2-0.9,2-2V8.4c0-0.8-0.5-1.6-1.3-1.9l-2.5-1C27.6,5.2,27.1,4.5,27.1,3.6z"/>
				<path class="st4" d="M29.1,12L29.1,12c-0.6,0-1-0.4-1-1V9c0-0.6,0.4-1,1-1h0c0.6,0,1,0.4,1,1v2C30.1,11.6,29.6,12,29.1,12z"/>
			</g>
		</g>
	</g>
	
		<linearGradient id="SVGID_6_" gradientUnits="userSpaceOnUse" x1="184.1125" y1="622.2009" x2="184.1125" y2="606.2009" gradientTransform="matrix(4.489681e-11 1 -1 4.489681e-11 638.2615 -160.1125)">
		<stop  offset="0" style="stop-color:#B6DFF0"/>
		<stop  offset="0.2191" style="stop-color:#CEEAF5"/>
		<stop  offset="0.5231" style="stop-color:#E9F5FA"/>
		<stop  offset="0.7933" style="stop-color:#F9FCFE"/>
		<stop  offset="1" style="stop-color:#FFFFFF"/>
	</linearGradient>
	<polygon class="st6" points="16.1,30 16.1,18 32.1,18 32.1,30 	"/>
	<polygon class="st7" points="23.1,25 21.1,25 21.1,24 22.1,24 22.1,23 21.1,23 21.1,22 23.1,22 23.1,21 21.1,21 20.1,21 20.1,22 
		20.1,23 20.1,24 20.1,25 20.1,26 21.1,26 23.1,26 	"/>
	<rect x="22.1" y="23" transform="matrix(4.474713e-11 1 -1 4.474713e-11 48.0607 -1.0607)" class="st7" width="5" height="1"/>
	
		<rect x="25.1" y="24" transform="matrix(4.365556e-11 1 -1 4.365556e-11 51.0607 -6.066017e-02)" class="st7" width="1" height="3"/>
	<rect x="25.1" y="20" transform="matrix(4.547455e-11 1 -1 4.547455e-11 47.0607 -4.0607)" class="st7" width="1" height="3"/>
	<g>
		<rect x="29.1" y="22" class="st8" width="1" height="3"/>
		<path class="st7" d="M31.1,25v-3v-1h-1h-1h-1v1v3v1h1h1h1V25z M29.1,25v-3h1v3H29.1z"/>
	</g>
</g>
</svg>
