<?xml version="1.0" encoding="utf-8"?>
<!-- Generator: Adobe Illustrator 19.2.1, SVG Export Plug-In . SVG Version: 6.00 Build 0)  -->
<svg version="1.1" id="Layer_1" xmlns="http://www.w3.org/2000/svg" xmlns:xlink="http://www.w3.org/1999/xlink" x="0px" y="0px"
	 viewBox="0 0 256 256" style="enable-background:new 0 0 256 256;" xml:space="preserve">
<style type="text/css">
	.st0{fill:url(#SVGID_1_);}
	.st1{fill:none;stroke:#05996D;stroke-width:0;stroke-linecap:round;stroke-linejoin:round;}
	.st2{fill:#FFFFFF;}
</style>
<g id="zsncv8_1_">
	
		<image style="overflow:visible;" width="675" height="244" id="zsncv8" xlink:href="16AEC5014D81D6FB.jpg"  transform="matrix(0.5594 0 0 0.5594 294 86)">
	</image>
</g>
<g>
	<linearGradient id="SVGID_1_" gradientUnits="userSpaceOnUse" x1="128.8722" y1="252.8195" x2="128.8722" y2="80.0438">
		<stop  offset="0" style="stop-color:#059999"/>
		<stop  offset="1" style="stop-color:#057E99"/>
	</linearGradient>
	<path class="st0" d="M247.2,200.5c19.9-18.8,3.5-50.2-30.8-62c-12.2-5.1-38-12.5-38-12.5c-3.2-0.9-6.4-1.7-9.6-2.3
		c-0.2-1-0.9-1.8-1.9-2.2c-5.3-2.1-10.7-6.7-14.8-13c-6.4-9.8-7.7-20.8-3.6-27c0.5-0.7-0.2-1.6-1-1.4c-15.4,4.2-27.1,17.4-29.1,33.6
		c-0.2,1.6-1.2,5-4.3,5h-3.1c0,0-0.1,0.1-0.1,0.1c-38.6,1-75.1,10.5-107.6,26.8c-1.6,0.8-2,3-0.7,4.3c29.1,30.1,69.9,48.8,115,48.8
		c0,0,0.1,0,0.1,0l9.6,7.2c13.4,10,28.8,16.9,45.2,20.1l9.6,1.9c1.8,0.4,2.8-2,1.3-3L167.3,213c-3.9-2.9-7.3-6.5-9.9-10.6l-4.8-7.6
		c12-2.7,23.6-6.7,34.4-12c0,0.1-0.1,0.1-0.1,0.2c24.1-11.8,47-6.2,46.5,6.4c-7.3,0.8-19.3,2.8-29,7.9c-1.1,0.6-0.8,2.2,0.4,2.4
		c6.6,1,13.2,3.5,19.3,7.5c15.7,10.6,22.9,28.6,18.9,43.9c-0.3,1.3,1.3,2.2,2.2,1.3c3.3-3.4,6.1-7.3,8.3-11.8
		C259.6,228.2,253.1,211.5,247.2,200.5z"/>
	<line class="st1" x1="98.4" y1="117.9" x2="102.9" y2="105.4"/>
</g>
<circle class="st2" cx="56" cy="150.7" r="5"/>
</svg>
