<svg id="Layer_1" data-name="Layer 1" xmlns="http://www.w3.org/2000/svg" xmlns:xlink="http://www.w3.org/1999/xlink" viewBox="0 0 48 48"><defs><style>.cls-1{fill:url(#linear-gradient);}.cls-2{fill:#cc0072;}.cls-3{fill:#520147;}</style><linearGradient id="linear-gradient" x1="5.3" y1="6.53" x2="42.7" y2="43.93" gradientUnits="userSpaceOnUse"><stop offset="0" stop-color="#ffd287"/><stop offset="0.13" stop-color="#feb18c"/><stop offset="0.34" stop-color="#fe8194"/><stop offset="0.53" stop-color="#fd5b99"/><stop offset="0.72" stop-color="#fc409e"/><stop offset="0.88" stop-color="#fc30a0"/><stop offset="1" stop-color="#fc2aa1"/></linearGradient></defs><title>character-1</title><path class="cls-1" d="M24,0h4A20,20,0,0,1,48,20V32A16,16,0,0,1,32,48H16A16,16,0,0,1,0,32V24A24,24,0,0,1,24,0Z"/><circle class="cls-2" cx="10" cy="18" r="2"/><circle class="cls-2" cx="38" cy="18" r="2"/><path class="cls-3" d="M0,32A16,16,0,0,0,16,48H32A16,16,0,0,0,48,32"/></svg>