<?xml version="1.0" encoding="utf-8"?>
<!-- Generator: Adobe Illustrator 19.2.1, SVG Export Plug-In . SVG Version: 6.00 Build 0)  -->
<svg version="1.1" id="Layer_1" xmlns="http://www.w3.org/2000/svg" xmlns:xlink="http://www.w3.org/1999/xlink" x="0px" y="0px"
	 viewBox="0 0 32 32" style="enable-background:new 0 0 32 32;" xml:space="preserve">
<style type="text/css">
	.st0{fill:#FFFFFF;}
</style>
<polygon class="st0" points="29,19 28,16 27,19 24,20 27,21 28,24 29,21 32,20 "/>
<polygon class="st0" points="17,27 16,24 15,27 12,28 15,29 16,32 17,29 20,28 "/>
<polygon class="st0" points="5,19 4,16 3,19 0,20 3,21 4,24 5,21 8,20 "/>
<polygon class="st0" points="18,6 16,0 14,6 8,8 14,10 16,16 18,10 24,8 "/>
</svg>
