<?xml version="1.0" encoding="utf-8"?>
<!-- Generator: Adobe Illustrator 19.2.1, SVG Export Plug-In . SVG Version: 6.00 Build 0)  -->
<svg version="1.1" xmlns="http://www.w3.org/2000/svg" xmlns:xlink="http://www.w3.org/1999/xlink" x="0px" y="0px"
	 viewBox="0 0 128 32" style="enable-background:new 0 0 128 32;" xml:space="preserve">
<style type="text/css">
	.st0{display:none;}
	.st1{display:inline;fill:#231F20;}
	.st2{fill:#FFFFFF;}
	.st3{opacity:0.5;fill:#6AECFA;}
</style>
<g id="Layer_2" class="st0">
	<rect x="-10.1" y="-17.8" class="st1" width="148.1" height="64.8"/>
</g>
<g id="Layer_1">
	<polygon class="st2" points="28.7,18.1 28,16 27.3,18.1 25.2,18.8 27.3,19.4 28,21.5 28.7,19.4 30.8,18.8 	"/>
	<polygon class="st2" points="17,27 16,24 15,27 12,28 15,29 16,32 17,29 20,28 	"/>
	<polygon class="st2" points="8.9,15.2 7.9,12.2 6.9,15.2 3.9,16.2 6.9,17.2 7.9,20.2 8.9,17.2 11.9,16.2 	"/>
	<polygon class="st3" points="18,6 16,0 14,6 8,8 14,10 16,16 18,10 24,8 	"/>
	<polygon class="st2" points="88.9,18.1 88.1,15.9 87.4,18.1 85.1,18.9 87.4,19.6 88.1,21.9 88.9,19.6 91.1,18.9 	"/>
	<polygon class="st2" points="81.5,24.5 80.1,20.4 78.8,24.5 74.6,25.9 78.8,27.2 80.1,31.4 81.5,27.2 85.6,25.9 	"/>
	<polygon class="st3" points="68,9 67.2,6.8 66.5,9 64.2,9.8 66.5,10.5 67.2,12.8 68,10.5 70.2,9.8 	"/>
	<polygon class="st2" points="57.1,15.4 55.9,11.6 54.6,15.4 50.9,16.6 54.6,17.9 55.9,21.6 57.1,17.9 60.9,16.6 	"/>
	<polygon class="st3" points="86.4,13.2 85.9,11.6 85.4,13.2 83.8,13.7 85.4,14.2 85.9,15.8 86.4,14.2 87.9,13.7 	"/>
	<polygon class="st2" points="125,4.7 125.3,2.3 123.7,4 121.3,3.7 123,5.3 122.7,7.7 124.3,6 126.7,6.3 	"/>
	<polygon class="st2" points="103.2,18.5 101.7,16.1 101.5,18.8 99.1,20.3 101.8,20.5 103.3,22.9 103.5,20.2 105.9,18.7 	"/>
	<polygon class="st3" points="111.2,6.8 110,3 108.8,6.8 105,8 108.8,9.2 110,13 111.2,9.2 115,8 	"/>
	<polygon class="st3" points="112.9,22.3 111.5,21.6 112.2,23.1 111.5,24.5 112.9,23.8 114.4,24.5 113.7,23.1 114.4,21.6 	"/>
	<polygon class="st3" points="43.4,14.6 42.8,12.8 42.1,14.6 40.3,15.2 42.1,15.8 42.8,17.6 43.4,15.8 45.2,15.2 	"/>
	<polygon class="st2" points="48.9,2.2 48.1,0 47.4,2.2 45.1,3 47.4,3.8 48.1,6 48.9,3.8 51.1,3 	"/>
</g>
</svg>
