<svg id="Layer_1" data-name="Layer 1" xmlns="http://www.w3.org/2000/svg" xmlns:xlink="http://www.w3.org/1999/xlink" viewBox="0 0 64 48"><defs><style>.cls-1{fill:#fc2ba0;}.cls-2{fill:url(#linear-gradient);}.cls-3{fill:#520147;}.cls-4{fill:#cc0072;}</style><linearGradient id="linear-gradient" x1="13.59" y1="7.27" x2="50.47" y2="44.16" gradientUnits="userSpaceOnUse"><stop offset="0" stop-color="#ffd287"/><stop offset="0.13" stop-color="#feb18c"/><stop offset="0.34" stop-color="#fe8194"/><stop offset="0.53" stop-color="#fd5b99"/><stop offset="0.72" stop-color="#fc409e"/><stop offset="0.88" stop-color="#fc30a0"/><stop offset="1" stop-color="#fc2aa1"/></linearGradient></defs><title>character-1</title><path class="cls-1" d="M8,24h4a0,0,0,0,1,0,0V36a0,0,0,0,1,0,0H8a4,4,0,0,1-4-4V28A4,4,0,0,1,8,24Z"/><path class="cls-1" d="M56,24h4a0,0,0,0,1,0,0V36a0,0,0,0,1,0,0H56a4,4,0,0,1-4-4V28A4,4,0,0,1,56,24Z" transform="translate(112 60) rotate(180)"/><path class="cls-2" d="M56,20V32A16,16,0,0,1,40,48H24A16,16,0,0,1,8,32V20C8,12.67,15,0,32,0S56,12.33,56,20Z"/><circle class="cls-3" cx="22" cy="26" r="2"/><circle class="cls-3" cx="42" cy="26" r="2"/><rect class="cls-4" x="24" y="36" width="16" height="4" rx="2" ry="2"/></svg>