<?xml version="1.0" encoding="utf-8"?>
<!-- Generator: Adobe Illustrator 19.2.1, SVG Export Plug-In . SVG Version: 6.00 Build 0)  -->
<svg version="1.1" id="Layer_1" xmlns="http://www.w3.org/2000/svg" xmlns:xlink="http://www.w3.org/1999/xlink" x="0px" y="0px"
	 viewBox="0 0 32 32" style="enable-background:new 0 0 32 32;" xml:space="preserve">
<style type="text/css">
	.st0{fill:#FFFFFF;}
</style>
<polygon class="st0" points="26.8,9.2 26,7 25.2,9.2 23,10 25.2,10.8 26,13 26.8,10.8 29,10 "/>
<polygon class="st0" points="19.2,21.8 18,18 16.8,21.8 13,23 16.8,24.2 18,28 19.2,24.2 23,23 "/>
<polygon class="st0" points="4,9 3.2,6.8 2.5,9 0.2,9.8 2.5,10.5 3.2,12.8 4,10.5 6.2,9.8 "/>
<polygon class="st0" points="17.5,4.5 16,0 14.5,4.5 10,6 14.5,7.5 16,12 17.5,7.5 22,6 "/>
</svg>
